<?xml version="1.0" encoding="UTF-8"?>
<!DOCTYPE svg PUBLIC "-//W3C//DTD SVG 1.1//EN" "http://www.w3.org/Graphics/SVG/1.1/DTD/svg11.dtd">
<!-- Creator: CorelDRAW X7 -->
<svg xmlns="http://www.w3.org/2000/svg" xml:space="preserve" width="600px" height="600px" version="1.1" style="shape-rendering:geometricPrecision; text-rendering:geometricPrecision; image-rendering:optimizeQuality; fill-rule:evenodd; clip-rule:evenodd"
viewBox="0 0 600000 600000"
 xmlns:xlink="http://www.w3.org/1999/xlink">
 <defs>
  <style type="text/css">
   <![CDATA[
    .fil1 {fill:#0D6DAB}
    .fil0 {fill:#5AA426}
    .fil2 {fill:#E52626}
    .fil3 {fill:#FC8F30}
   ]]>
  </style>
 </defs>
 <g id="Laag_x0020_1">
  <metadata id="CorelCorpID_0Corel-Layer"/>
  <path class="fil0" d="M167320 73153c40781,-11112 85776,-2703 120170,25266l-48038 48038c-26060,-16989 -61285,-14041 -84132,8844 -26268,26249 -26268,68787 0,95036l82299 82318 49455 49455 -47509 47509 -131773 -131773c-35357,-35358 -46885,-85512 -34620,-130526 -17745,-2306 -34904,-10262 -48548,-23906 -32807,-32787 -32807,-85984 0,-118790 32806,-32807 86003,-32807 118790,0 13644,13625 21619,30784 23906,48529z"/>
  <path class="fil1" d="M73191 432661c-11131,-40781 -2722,-85776 25266,-120170l48037 48038c-16988,26060 -14040,61285 8826,84151 26249,26249 68787,26249 95036,0l82318 -82318 48624 -48605 47527 47528 -130942 130923c-35376,35357 -85530,46885 -130544,34620 -2306,17745 -10262,34904 -23906,48529 -32806,32807 -86003,32826 -118790,0 -32826,-32806 -32807,-85984 0,-118809 13644,-13606 30784,-21581 48548,-23887z"/>
  <path class="fil2" d="M432680 526847c-40781,11112 -85776,2703 -120151,-25266l48019 -48019c26060,16970 61285,14022 84151,-8844 26268,-26268 26268,-68787 0,-95055l-82318 -82318 -49455 -49455 47528 -47509 131754 131773c35376,35358 46904,85512 34639,130526 17745,2306 34885,10262 48529,23906 32807,32806 32807,85984 0,118809 -32787,32788 -85984,32788 -118790,0 -13625,-13644 -21600,-30803 -23906,-48548z"/>
  <path class="fil3" d="M526847 167339c11093,40800 2684,85776 -25266,120170l-48057 -48038c16989,-26060 14041,-61285 -8825,-84151 -26249,-26249 -68806,-26249 -95036,0l-82337 82318 -47301 47319 -47527 -47527 129637 -129619c35358,-35376 85531,-46923 130526,-34639 2306,-17745 10281,-34904 23925,-48548 32787,-32788 85984,-32788 118790,19 32807,32806 32807,85984 -19,118809 -13606,13625 -30765,21581 -48510,23887z"/>
 </g>
</svg>
