<?xml version="1.0" standalone="no"?>
<!DOCTYPE svg PUBLIC "-//W3C//DTD SVG 20010904//EN"
 "http://www.w3.org/TR/2001/REC-SVG-20010904/DTD/svg10.dtd">
<svg version="1.0" xmlns="http://www.w3.org/2000/svg"
 width="500.000000pt" height="500.000000pt" viewBox="0 0 500.000000 500.000000"
 preserveAspectRatio="xMidYMid meet">
<metadata>
Created by potrace 1.11, written by Peter Selinger 2001-2013
</metadata>
<g transform="translate(0.000000,500.000000) scale(0.100000,-0.100000)"
fill="#000000" stroke="none">
<path d="M2508 4845 c-2 -2 -28 -7 -58 -10 -69 -6 -94 -11 -200 -36 -616 -143
-1121 -589 -1343 -1184 -26 -71 -62 -190 -71 -235 -2 -14 -9 -49 -15 -79 -6
-30 -14 -77 -17 -105 -3 -28 -7 -64 -9 -81 -6 -41 -6 -248 -1 -315 6 -80 17
-153 30 -210 3 -14 8 -36 10 -50 2 -14 12 -52 22 -85 10 -33 19 -62 19 -65 21
-76 66 -187 127 -305 135 -266 346 -507 593 -680 165 -115 235 -146 330 -146
79 0 110 7 171 36 165 80 241 279 175 456 -30 79 -79 131 -193 205 -123 80
-114 72 -219 176 -415 411 -460 1062 -105 1530 304 403 840 564 1320 398 55
-18 207 -91 231 -109 26 -21 110 -39 175 -39 197 1 347 144 356 341 6 134 -52
246 -164 321 -182 120 -443 216 -687 253 -16 2 -41 7 -55 10 -28 6 -416 13
-422 8z"/>
<path d="M2997 3704 c-1 -1 -38 -5 -81 -9 -43 -4 -88 -9 -100 -11 -99 -19
-124 -24 -143 -29 -13 -3 -31 -7 -42 -9 -113 -26 -374 -131 -466 -188 -120
-76 -183 -176 -189 -303 -6 -133 49 -243 157 -316 131 -87 249 -86 426 5 191
98 359 136 571 131 148 -4 170 -6 278 -36 448 -124 769 -478 853 -944 16 -87
15 -290 0 -370 -7 -33 -15 -73 -18 -89 -2 -16 -18 -68 -35 -115 -84 -240 -244
-444 -459 -587 -127 -85 -168 -124 -205 -200 -26 -53 -29 -69 -29 -154 0 -84
3 -102 28 -152 90 -184 297 -259 482 -174 118 54 279 176 441 333 45 44 162
189 212 263 131 194 254 489 287 688 3 17 8 47 11 65 17 102 22 181 19 347 -2
102 -5 194 -8 205 -2 11 -8 43 -12 70 -5 28 -9 52 -10 55 -1 3 -7 32 -14 65
-82 378 -331 774 -656 1042 -220 181 -572 341 -852 388 -74 12 -91 14 -148 21
-54 6 -293 13 -298 8z"/>
<path d="M3355 2401 c-129 -34 -221 -121 -269 -256 -4 -11 -10 -63 -12 -115
-9 -188 -23 -265 -68 -397 -96 -281 -327 -537 -601 -668 -159 -76 -291 -107
-475 -111 -135 -3 -169 1 -315 31 -37 8 -169 56 -225 83 -262 122 -500 390
-595 667 -46 135 -61 220 -65 375 -5 189 -94 319 -253 373 -114 38 -263 6
-355 -78 -90 -81 -122 -175 -117 -346 20 -638 376 -1242 920 -1564 42 -25 80
-45 84 -45 5 0 11 -4 13 -8 4 -11 176 -85 268 -116 348 -115 667 -131 1048
-52 121 26 304 95 450 172 104 54 114 61 237 149 390 279 667 732 751 1225 11
68 19 185 19 290 0 121 -1 128 -32 191 -61 124 -175 200 -307 205 -39 2 -84 0
-101 -5z"/>
</g>
</svg>
