<?xml version="1.0" standalone="no"?>
<!DOCTYPE svg PUBLIC "-//W3C//DTD SVG 1.1//EN" "http://www.w3.org/Graphics/SVG/1.1/DTD/svg11.dtd" >
<svg xmlns="http://www.w3.org/2000/svg" xmlns:xlink="http://www.w3.org/1999/xlink" version="1.1">
<metadata>
Created by FontForge 20161003 at Fri Oct 14 18:29:11 2016
 By Ercan Özkaya
</metadata>
<defs>
<font id="k-icons" horiz-adv-x="512" >
  <font-face 
    font-family="k-icons"
    font-weight="400"
    font-stretch="normal"
    units-per-em="512"
    panose-1="2 0 5 9 0 0 0 0 0 0"
    ascent="448"
    descent="-64"
    bbox="-64 -78 517 450"
    underline-thickness="25"
    underline-position="-76"
    unicode-range="U+F101-F1F2"
  />
<missing-glyph 
d="M17 0v341h136v-341h-136zM34 17h102v307h-102v-307z" />
    <glyph glyph-name=".notdef" 
d="M17 0v341h136v-341h-136zM34 17h102v307h-102v-307z" />
    <glyph glyph-name=".null" horiz-adv-x="0" 
 />
    <glyph glyph-name="nonmarkingreturn" 
 />
    <glyph glyph-name="close" unicode="&#xf101;" 
d="M0 240q0 7 4.5 11.5t11.5 4.5h480q7 0 11.5 -4.5t4.5 -11.5v-96q0 -7 -4.5 -11.5t-11.5 -4.5h-480q-7 0 -11.5 4.5t-4.5 11.5v96z" />
    <glyph glyph-name="disabled" unicode="&#xf102;" 
d="M507 37q3 -3 4 -6q4 -10 -4 -17l-73 -73q-7 -8 -17 -4q-3 1 -6 4l-155 155l-155 -155q-3 -3 -6 -4q-10 -4 -17 4l-73 73q-8 7 -4 17q1 3 4 6l155 155l-155 155q-3 3 -4 6q-4 10 4 17l73 73q7 8 17 4q3 -1 6 -4l155 -155l155 155q3 3 6 4q10 4 17 -4l73 -73q8 -7 4 -17
q-1 -3 -4 -6l-155 -155z" />
    <glyph glyph-name="document-archive" unicode="&#xf103;" 
d="M352 448l96 -64v-128h-384v128l96 64h192zM320 288v53q0 5 -3 8t-8 3h-106q-5 0 -8 -3t-3 -8v-53h32v21q0 5 3 8t8 3h42q5 0 8 -3t3 -8v-21h32zM64 96v128h384v-128h-384zM192 181v-53h32v21q0 5 3 8t8 3h42q5 0 8 -3t3 -8v-21h32v53q0 5 -3 8t-8 3h-106q-5 0 -8 -3
t-3 -8zM64 -64v128h384v-128h-384zM192 21v-53h32v21q0 5 3 8t8 3h42q5 0 8 -3t3 -8v-21h32v53q0 5 -3 8t-8 3h-106q-5 0 -8 -3t-3 -8z" />
    <glyph glyph-name="document-audio" unicode="&#xf104;" 
d="M415.5 9q-11.5 0 -19.5 8.5t-8 19.5t8 19q56 56 56 136t-56 136q-8 8 -8 19.5t8 19.5t19.5 8t19.5 -8q72 -73 72 -175t-72 -174q-8 -9 -19.5 -9zM318.5 61q-11.5 0 -19.5 8t-8 19.5t8 19.5q35 35 35 84t-35 84q-8 8 -8 19.5t8 19.5t19.5 8t19.5 -8q50 -51 50 -123
t-50 -123q-8 -8 -19.5 -8zM234 440q11 11 19 7.5t8 -18.5v-474q0 -15 -8 -18.5t-19 7.5l-138 138h-91v220h91z" />
    <glyph glyph-name="document-default" unicode="&#xf105;" 
d="M452 348q11 -11 19.5 -31t8.5 -37v-304q0 -16 -11.5 -28t-28.5 -12h-368q-16 0 -28 11.5t-12 28.5v432q0 16 11.5 28t28.5 12h240q17 0 37 -8.5t31 -19.5zM429 326l-71 71q-3 2 -6 5v-82h82q-3 3 -5 6zM448 -24v304q0 3 -1 8h-127v127q-5 1 -8 1h-240q-8 0 -8 -8v-432
q0 -8 8 -8h368q8 0 8 8z" />
    <glyph glyph-name="document-document" unicode="&#xf106;" 
d="M452 348q11 -11 19.5 -31t8.5 -37v-304q0 -16 -11.5 -28t-28.5 -12h-368q-16 0 -28 11.5t-12 28.5v432q0 16 11.5 28t28.5 12h240q17 0 37 -8.5t31 -19.5zM352 402v-82h82q-3 3 -5 6l-71 71q-3 2 -6 5zM448 -24v304q0 3 -1 8h-127v127q-5 1 -8 1h-240q-8 0 -8 -8v-432
q0 -8 8 -8h368q8 0 8 8zM128 192h256v-32h-256v32zM128 64h256v-32h-256v32zM128 128h256v-32h-256v32z" />
    <glyph glyph-name="document-folder" unicode="&#xf107;" 
d="M0 304h512l-32 -320h-448zM464 368l16 -32h-448l32 64h176l16 -32h208z" />
    <glyph glyph-name="document-image" unicode="&#xf108;" 
d="M0 416h512v-448h-512v448zM480 0v384h-448v-384h448zM352 304q0 20 14 34t34 14t34 -14t14 -34t-14 -34t-34 -14t-34 14t-14 34zM448 32h-384l96 256l128 -160l64 48z" />
    <glyph glyph-name="document-pdf" unicode="&#xf109;" 
d="M421 153q5 -4 5 -8q2 -16 -4 -26q-4 -5 -11 -7q-4 -1 -10 -1q-39 0 -89 28q-61 -9 -122 -29q-49 -85 -80 -85q-6 0 -11 3l-8 4q-8 4 -5 15q5 25 52 53q8 5 19 11l9 4q13 23 28 52l1 2q21 40 30 62l3 8q-21 78 -13 107q4 13 21 13h5q12 0 18 -14l1 -2q1 -3 1 -6
q2 -9 0 -29.5t-5 -36.5l-3 -16q0 -2 -1 -7q15 -43 45 -71q8 -7 25 -17q30 4 54 4q35 -1 45 -11zM106 41q19 9 50 57q-7 -6 -9 -7q-33 -28 -41 -50zM239 348q-1 0 -2 -6t-1 -12v-6q0 -26 6 -45q9 16 8 36q0 33 -11 33zM199 129q39 15 90 25q-4 3 -7 5q-25 22 -42 53
q-11 -28 -26 -56q-7 -13 -15 -27zM414 131q1 1 1.5 3t-2.5 4t-9 4q-12 3 -28 3q-10 0 -22 -1q34 -15 49 -15q8 0 11 2zM452 348q11 -11 19.5 -31t8.5 -37v-304q0 -16 -11.5 -28t-28.5 -12h-368q-16 0 -28 11.5t-12 28.5v432q0 16 11.5 28t28.5 12h240q17 0 37 -8.5t31 -19.5
zM429 326l-71 71q-3 2 -6 5v-82h82q-3 3 -5 6zM448 -24v304q0 3 -1 8h-127v127q-5 1 -8 1h-240q-8 0 -8 -8v-432q0 -8 8 -8h368q8 0 8 8z" />
    <glyph glyph-name="document-spreadsheet" unicode="&#xf10a;" 
d="M452 348q11 -11 19.5 -31t8.5 -37v-304q0 -16 -11.5 -28t-28.5 -12h-368q-16 0 -28 11.5t-12 28.5v432q0 16 11.5 28t28.5 12h240q17 0 37 -8.5t31 -19.5zM352 402v-82h82q-3 3 -5 6l-71 71q-3 2 -6 5zM448 -24v304q0 3 -1 8h-127v127q-5 1 -8 1h-240q-8 0 -8 -8v-432
q0 -8 8 -8h368q8 0 8 8zM128 192h256v-160h-256v160zM160 128h80v32h-80v-32zM240 96h-80v-32h80v32zM352 64v32h-80v-32h80zM352 128v32h-80v-32h80z" />
    <glyph glyph-name="document-video" unicode="&#xf10b;" 
d="M0 384h512v-384h-512v384zM96 32v64h-64v-64h64zM96 160v64h-64v-64h64zM96 288v64h-64v-64h64zM384 32v320h-256v-320h256zM480 32v64h-64v-64h64zM480 160v64h-64v-64h64zM480 288v64h-64v-64h64zM192 288l128 -96l-128 -96v192z" />
    <glyph glyph-name="documents" unicode="&#xf10c;" 
d="M491 245q9 -9 15 -24t6 -27v-228q0 -12 -9 -21t-21 -9h-276q-12 0 -21 9t-9 21v324q0 12 9 21t21 9h180q8 0 18 -3t18.5 -7.5t14.5 -10.5zM416 285v-61h61q-2 3 -3 4l-54 54q-2 2 -4 3zM488 -34v228q0 3 -1 6h-95v95q-3 1 -6 1h-180q-6 0 -6 -6v-324q0 -6 6 -6h276
q6 0 6 6zM248 128h192v-24h-192v24zM248 32h192v-24h-192v24zM248 80h192v-24h-192v24zM72 168v24h104v-24h-104zM72 72v24h104v-24h-104zM72 120v24h104v-24h-104zM30 24h146v-24h-146q-12 0 -21 9t-9 21v324q0 12 9 21t21 9h58v34q0 12 9 21t21 9h180q6 0 13.5 -1.5
t14 -4.5t13 -7t10.5 -8l54 -54q9 -9 15 -24t6 -27v-14q-12 7 -24 10v4q0 2 -1 6h-95v95q-3 1 -6 1h-180q-6 0 -6 -6v-34h98q12 0 27 -6t24 -15l43 -43h-34l-26 26q-2 2 -4 3v-29h-24v39q-3 1 -6 1h-180q-6 0 -6 -6v-324q0 -6 6 -6zM328 413v-61h61q-2 3 -3 4l-54 54
q-2 2 -4 3z" />
    <glyph glyph-name="enabled" unicode="&#xf10d;" 
d="M432 392l80 -80l-320 -320l-192 192l80 80l112 -112z" />
    <glyph glyph-name="filter" unicode="&#xf10e;" 
d="M510 434q6 -15 -5 -26l-179 -179v-269q0 -16 -14 -22q-5 -2 -9 -2q-10 0 -17 7l-93 93q-7 7 -7 17v176l-179 179q-11 11 -5 26q6 14 22 14h464q16 0 22 -14z" />
    <glyph glyph-name="folder-closed" unicode="&#xf10f;" 
d="M0 304h512l-32 -320h-448zM464 368l16 -32h-448l32 64h176l16 -32h208z" />
    <glyph glyph-name="folder-opened" unicode="&#xf110;" 
d="M416 -16h-416l96 256h416zM64 272l-64 -288v416h144l64 -64h208v-64h-352z" />
    <glyph glyph-name="menu-closed" unicode="&#xf111;" 
d="M0 448h128v-128h-128v128zM192 416h320v-64h-320v64zM0 256h128v-128h-128v128zM192 224h320v-64h-320v64zM0 64h128v-128h-128v128zM192 32h320v-64h-320v64z" />
    <glyph glyph-name="menu-opened" unicode="&#xf112;" 
d="M0 432h128v-128h-128v128zM192 400h320v-64h-320v64zM192 272h64v-128h-64v128zM192 208h256v-64h-256v64zM192 80h64v-128h-64v128zM192 16h256v-64h-256v64z" />
    <glyph glyph-name="open" unicode="&#xf113;" 
d="M496 256q7 0 11.5 -4.5t4.5 -11.5v-96q0 -7 -4.5 -11.5t-11.5 -4.5h-176v-176q0 -7 -4.5 -11.5t-11.5 -4.5h-96q-7 0 -11.5 4.5t-4.5 11.5v176h-176q-7 0 -11.5 4.5t-4.5 11.5v96q0 7 4.5 11.5t11.5 4.5h176v176q0 7 4.5 11.5t11.5 4.5h96q7 0 11.5 -4.5t4.5 -11.5v-176
h176z" />
    <glyph glyph-name="account-login" unicode="&#xf114;" 
d="M192 448h320v-448h-320v64h256v320h-256v64zM256 320l128 -96l-128 -96v64h-256v64h256v64z" />
    <glyph glyph-name="account-logout" unicode="&#xf115;" 
d="M192 448h320v-448h-320v64h256v320h-256v64zM128 320v-64h256v-64h-256v-64l-128 96z" />
    <glyph glyph-name="action-redo" unicode="&#xf116;" 
d="M224 384q93 0 158.5 -65.5t65.5 -158.5v-32h64l-128 -128l-128 128h64v32q0 66 -47 113t-113 47t-113 -47t-47 -113q0 93 65.5 158.5t158.5 65.5z" />
    <glyph glyph-name="action-undo" unicode="&#xf117;" 
d="M288 384q93 0 158.5 -65.5t65.5 -158.5q0 66 -47 113t-113 47t-113 -47t-47 -113v-32h64l-128 -128l-128 128h64v32q0 93 65.5 158.5t158.5 65.5z" />
    <glyph glyph-name="align-center" unicode="&#xf118;" 
d="M0 448h512v-64h-512v64zM64 320h384v-64h-384v64zM0 192h512v-64h-512v64zM64 64h384v-64h-384v64z" />
    <glyph glyph-name="align-left" unicode="&#xf119;" 
d="M0 448h512v-64h-512v64zM0 320h384v-64h-384v64zM0 192h512v-64h-512v64zM0 64h384v-64h-384v64z" />
    <glyph glyph-name="align-right" unicode="&#xf11a;" 
d="M0 448h512v-64h-512v64zM128 320h384v-64h-384v64zM0 192h512v-64h-512v64zM128 64h384v-64h-384v64z" />
    <glyph glyph-name="aperture" unicode="&#xf11b;" 
d="M256 448q69 0 132 -38l-48 -144l-206 150q59 32 122 32zM80 376h-1l123 -89l-198 -142q-4 23 -4 46q0 108 80 185zM440 367q73 -75 73 -176q0 -23 -11 -64h-140zM138 161l73 -222q-61 11 -109.5 49t-75.5 93zM238 63h238q-31 -53 -83 -86.5t-115 -39.5z" />
    <glyph glyph-name="arrow-bottom" unicode="&#xf11c;" 
d="M192 448h64v-320h128l-158 -192l-162 192h128v320z" />
    <glyph glyph-name="arrow-circle-bottom" unicode="&#xf11d;" 
d="M256 448q106 0 181 -75t75 -181t-75 -181t-181 -75t-181 75t-75 181t75 181t181 75zM192 384v-192h-128l192 -192l192 192h-128v192h-128z" />
    <glyph glyph-name="arrow-circle-left" unicode="&#xf11e;" 
d="M256 448q106 0 181 -75t75 -181t-75 -181t-181 -75t-181 75t-75 181t75 181t181 75zM256 384l-192 -192l192 -192v128h192v128h-192v128z" />
    <glyph glyph-name="arrow-circle-right" unicode="&#xf11f;" 
d="M256 448q106 0 181 -75t75 -181t-75 -181t-181 -75t-181 75t-75 181t75 181t181 75zM256 384v-128h-192v-128h192v-128l192 192z" />
    <glyph glyph-name="arrow-circle-top" unicode="&#xf120;" 
d="M256 448q106 0 181 -75t75 -181t-75 -181t-181 -75t-181 75t-75 181t75 181t181 75zM256 384l-192 -192h128v-192h128v192h128z" />
    <glyph glyph-name="arrow-left" unicode="&#xf121;" 
d="M192 384v-128h320v-64h-320v-128l-192 158z" />
    <glyph glyph-name="arrow-right" unicode="&#xf122;" 
d="M320 384l192 -158l-192 -162v128h-320v64h320v128z" />
    <glyph glyph-name="arrow-thick-bottom" unicode="&#xf123;" 
d="M192 448h128v-320h128l-190 -192l-194 192h128v320z" />
    <glyph glyph-name="arrow-thick-left" unicode="&#xf124;" 
d="M192 384v-128h320v-128h-320v-128l-192 190z" />
    <glyph glyph-name="arrow-thick-right" unicode="&#xf125;" 
d="M320 384l192 -190l-192 -194v128h-320v128h320v128z" />
    <glyph glyph-name="arrow-thick-top" unicode="&#xf126;" 
d="M254 448l194 -192h-128v-320h-128v320h-128z" />
    <glyph glyph-name="arrow-top" unicode="&#xf127;" 
d="M222 448l162 -192h-128v-320h-64v320h-128z" />
    <glyph glyph-name="audio-spectrum" unicode="&#xf128;" 
d="M256 448h64v-512h-64v512zM128 384h64v-384h-64v384zM384 320h64v-256h-64v256zM0 256h64v-128h-64v128z" />
    <glyph glyph-name="audio" unicode="&#xf129;" 
d="M74 384v1l46 -46q-56 -56 -56 -134q0 -80 56 -137l-46 -46q-74 74 -74 182q0 106 74 180zM438 384v-1q75 -73 75 -179q0 -108 -75 -182l-46 46q57 56 57 136q0 78 -57 134zM166 294l45 -46q-18 -19 -18 -44q0 -29 18 -47l-45 -46q-37 38 -37 93q0 52 37 90zM346 294
q38 -38 38 -90q0 -55 -38 -93l-44 46q18 18 18 47q0 26 -18 44z" />
    <glyph glyph-name="badge" unicode="&#xf12a;" 
d="M256 448q53 0 90.5 -37.5t37.5 -90.5t-37.5 -90.5t-90.5 -37.5t-90.5 37.5t-37.5 90.5t37.5 90.5t90.5 37.5zM192 140q34 -12 64 -12t64 12v-204l-64 64l-64 -64v204z" />
    <glyph glyph-name="ban" unicode="&#xf12b;" 
d="M256 448q106 0 181 -75t75 -181t-75 -181t-181 -75t-181 75t-75 181t75 181t181 75zM256 384q-80 0 -136 -56t-56 -136q0 -62 36 -112l268 268q-50 36 -112 36zM412 304l-268 -268q50 -36 112 -36q80 0 136 56t56 136q0 62 -36 112z" />
    <glyph glyph-name="bar-chart" unicode="&#xf12c;" 
d="M0 448h64v-384h448v-64h-512v448zM320 448h128v-320h-128v320zM128 320h128v-192h-128v192z" />
    <glyph glyph-name="basket" unicode="&#xf12d;" 
d="M254 448v1q11 1 22 -9l35 -41.5t73 -87t46 -55.5h82v-64h-64v-234q0 -9 -6.5 -15.5t-15.5 -6.5h-340q-5 0 -10 3t-8 8t-3 11v234h-64v64h82l149 180q8 11 22 12zM256 366l-92 -110h184zM160 128q-13 0 -22.5 -9.5t-9.5 -22.5v-64q0 -13 9.5 -22.5t22.5 -9.5t22.5 9.5
t9.5 22.5v64q0 13 -9.5 22.5t-22.5 9.5zM352 128q-13 0 -22.5 -9.5t-9.5 -22.5v-64q0 -13 9.5 -22.5t22.5 -9.5t22.5 9.5t9.5 22.5v64q0 13 -9.5 22.5t-22.5 9.5z" />
    <glyph glyph-name="battery-empty" unicode="&#xf12e;" 
d="M6 384v1h436q5 0 5 -6v-122h64v-128h-64v-123q0 -5 -5 -5h-436q-6 0 -6 5v372q0 6 6 6zM64 320v-256h320v256h-320z" />
    <glyph glyph-name="battery-full" unicode="&#xf12f;" 
d="M6 384v1h436q5 0 5 -6v-122h64v-128h-64v-123q0 -5 -5 -5h-436q-6 0 -6 5v372q0 6 6 6z" />
    <glyph glyph-name="beaker" unicode="&#xf130;" 
d="M86 448h1h2h2h2.5h3.5h320q13 0 22.5 -9.5t9.5 -22.5t-9.5 -22.5t-22.5 -9.5h-32v-90q91 -173 106 -198q22 -38 22 -68q0 -40 -27 -66h-2q-27 -26 -64 -26h-328q-40 0 -66 26t-26 66q0 33 22 68q15 26 106 198v90h-32h-5q-14 0 -23.5 9.5t-9.5 22.5q0 11 8 20.5t20 11.5z
M192 384v-104l-4 -6q-40 -79 -76 -146h288l-76 146l-4 6v104h-128z" />
    <glyph glyph-name="bell" unicode="&#xf131;" 
d="M256 448q53 0 90.5 -37.5t37.5 -90.5q0 -99 86 -170q42 -34 42 -86h-512q0 51 42 86q86 71 86 170q0 53 37.5 90.5t90.5 37.5zM192 0h128q0 -26 -19 -45t-45 -19t-45 19t-19 45z" />
    <glyph glyph-name="bluetooth" unicode="&#xf132;" 
d="M160 448h32l224 -160l-144 -94l144 -98l-224 -160h-32v160l-48 -48l-48 48l96 96l-96 96l48 48l48 -48v160zM224 352v-128l96 64zM224 160v-128l96 64z" />
    <glyph glyph-name="bold" unicode="&#xf133;" 
d="M0 448h320q53 0 90.5 -37.5t37.5 -90.5q0 -45 -28 -80q41 -20 66.5 -58.5t25.5 -85.5q0 -66 -47 -113t-113 -47h-352v64q26 0 45 19t19 45v256q0 26 -19 45t-45 19v64zM192 384v-128h64q26 0 45 19t19 45t-19 45t-45 19h-64zM192 192v-192h96q40 0 68 28t28 68t-28 68
t-68 28h-96z" />
    <glyph glyph-name="bolt" unicode="&#xf134;" 
d="M256 448v-192h128l-192 -320v192h-128z" />
    <glyph glyph-name="book" unicode="&#xf135;" 
d="M64 448h192v-192l64 64l64 -64v192h32q13 0 22.5 -9.5t9.5 -22.5v-352h-352q-13 0 -22.5 -9.5t-9.5 -22.5t9.5 -22.5t22.5 -9.5h352v-64h-352q-40 0 -68 28t-28 68v352q0 8 2 12q4 19 17.5 32.5t32.5 17.5q6 2 12 2z" />
    <glyph glyph-name="bookmark" unicode="&#xf136;" 
d="M128 448h256v-512l-128 128l-128 -128v512z" />
    <glyph glyph-name="box" unicode="&#xf137;" 
d="M0 448h512v-64h-512v64zM0 320h-1h192v-66h130v66h190v-378q0 -6 -5 -6h-500q-6 0 -6 6v378z" />
    <glyph glyph-name="briefcase" unicode="&#xf138;" 
d="M192 448h128q26 0 45 -19t19 -45v-64h122q6 0 6 -6v-154q0 -13 -9.5 -22.5t-22.5 -9.5h-448q-13 0 -22.5 9.5t-9.5 22.5v154q0 6 6 6h122v64q0 26 19 45t45 19zM192 384v-64h128v64h-128zM0 70h-1q19 -6 32 -6h448q17 0 32 6v-128q0 -6 -5 -6h-500q-6 0 -6 6v128z" />
    <glyph glyph-name="british-pound" unicode="&#xf139;" 
d="M256 448v-1q60 0 94 -34t34 -94h-64q0 32 -16 48t-48 16q-30 0 -46 -19q-18 -23 -18 -61q0 -18 8 -56t10 -56h110v-64h-114q-16 -63 -72 -128h314v-64h-384v78l10 9q56 56 68 106h-78v64h80q-16 89 -16 112q0 59 32 100q35 44 96 44z" />
    <glyph glyph-name="browser" unicode="&#xf13a;" 
d="M22 448h2h2h3.5h2.5h448q13 0 22.5 -9.5t9.5 -22.5v-448q0 -13 -9.5 -22.5t-22.5 -9.5h-448q-13 0 -22.5 9.5t-9.5 22.5v448v2q0 9 6.5 18t15.5 12zM96 384q-13 0 -22.5 -9.5t-9.5 -22.5t9.5 -22.5t22.5 -9.5t22.5 9.5t9.5 22.5t-9.5 22.5t-22.5 9.5zM224 384
q-13 0 -22.5 -9.5t-9.5 -22.5t9.5 -22.5t22.5 -9.5h192q13 0 22.5 9.5t9.5 22.5t-9.5 22.5t-22.5 9.5h-192zM64 256v-256h384v256h-384z" />
    <glyph glyph-name="brush" unicode="&#xf13b;" 
d="M476 446v1q2 0 4 -2l28 -28q3 -3 0 -9l-170 -240q-3 -4 -10 -8l-16 -8q-11 34 -36.5 59.5t-59.5 36.5l8 16q4 7 8 10l240 170zM170 192l1 1q35 0 60.5 -25.5t25.5 -60.5q0 -71 -50 -120.5t-121 -49.5q-47 0 -85 21q38 23 61.5 62.5t23.5 85.5q0 23 11 43t30.5 31.5
t42.5 11.5z" />
    <glyph glyph-name="bug" unicode="&#xf13c;" 
d="M224 448l1 1q27 0 50.5 -18t35 -42.5t10 -52.5t-19.5 -47q16 -13 18 -14l84 42q3 2 8 4h5q14 0 23 -9.5t9 -22.5q0 -8 -5 -16.5t-12 -12.5l-75 -35q13 -23 16 -32h45q13 0 22.5 -9.5t9.5 -23t-9.5 -22.5t-22.5 -9h-32q0 -22 -4 -43l50 -26q9 -3 16 -12t7 -19
q0 -13 -9.5 -22.5t-22.5 -9.5q-11 0 -19 7l-43 22q-22 -44 -66 -70q-37 20 -37 46v86v2.5v2.5v4v3.5v2.5v56q0 14 -9.5 23t-22.5 9q-12 0 -21 -7.5t-11 -18.5v-6.5v-7.5v-52v-2.5v-3.5v-92q0 -25 -38 -46q-41 24 -66 70l-42 -22q-9 -6 -19 -6q-14 0 -23 9.5t-9 22.5
q0 10 6.5 19t16.5 12l49 26q-3 20 -3 42h-32h-3q-14 0 -23 9.5t-9 22.5q0 12 8.5 21.5t20.5 10.5h2.5h3.5h44q3 10 16 32l-74 36q-8 3 -13.5 11.5t-5.5 17.5q0 10 7 19.5t17 11.5q3 1 6 1q9 0 16 -5l84 -42q1 1 18 14q-18 19 -20 47t10 52.5t35.5 42.5t50.5 18z" />
    <glyph glyph-name="bullhorn" unicode="&#xf13d;" 
d="M384 448l-1 -1h59q5 0 5 -5v-372q0 -6 -5 -6h-52h-2h-4v384zM320 416v1v-320l-160 80v-2q-15 0 -18 -14l48 -114q5 -12 0.5 -25.5t-16.5 -19t-25.5 -0.5t-18.5 17l-66 174h-58q-6 0 -6 5v116q0 6 6 6h116q7 0 12 2z" />
    <glyph glyph-name="calculator" unicode="&#xf13e;" 
d="M6 448h436q5 0 5 -6v-500q0 -5 -5 -5h-436q-6 0 -6 5v500q0 6 6 6zM64 384v-128h320v128h-320zM64 192v-64h64v64h-64zM192 192v-64h64v64h-64zM320 192v-192h64v192h-64zM64 64v-64h64v64h-64zM192 64v-64h64v64h-64z" />
    <glyph glyph-name="calendar" unicode="&#xf13f;" 
d="M0 448h448v-128h-448v128zM0 256h-1h448v-314q0 -6 -5 -6h-436q-6 0 -6 6v314zM64 192v-64h64v64h-64zM192 192v-64h64v64h-64zM320 192v-64h64v64h-64zM64 64v-64h64v64h-64zM192 64v-64h64v64h-64z" />
    <glyph glyph-name="camera-slr" unicode="&#xf140;" 
d="M262 448l-2 -1h116q5 0 8 -5l60 -116q4 -6 8 -6h52q6 0 6 -6v-372q0 -5 -6 -5h-500q-5 0 -5 5v283q0 39 28 67.5t68 28.5h90q6 0 8 5l60 116q4 6 9 6zM96 256q-13 0 -22.5 -9.5t-9.5 -22.5t9.5 -22.5t22.5 -9.5t22.5 9.5t9.5 22.5t-9.5 22.5t-22.5 9.5zM320 256
q-53 0 -90.5 -37.5t-37.5 -90.5t37.5 -90.5t90.5 -37.5t90.5 37.5t37.5 90.5t-37.5 90.5t-90.5 37.5zM320 192q26 0 45 -19t19 -45t-19 -45t-45 -19t-45 19t-19 45t19 45t45 19z" />
    <glyph glyph-name="caret-bottom" unicode="&#xf141;" 
d="M0 320h512l-256 -256z" />
    <glyph glyph-name="caret-left" unicode="&#xf142;" 
d="M384 448v-512l-256 256z" />
    <glyph glyph-name="caret-right" unicode="&#xf143;" 
d="M128 448l256 -256l-256 -256v512z" />
    <glyph glyph-name="caret-top" unicode="&#xf144;" 
d="M256 320l256 -256h-512z" />
    <glyph glyph-name="cart" unicode="&#xf145;" 
d="M22 384h-1h2h2h2.5h3.5h128q8 0 16 -5.5t12 -12.5l24 -46h284q7 0 10 -5t1 -11l-52 -160q-2 -6 -8.5 -11t-13.5 -5h-224q-6 0 -13 5t-9 11l-26 80l-26 80l-6 16h-96h-5q-14 0 -23.5 9.5t-9.5 22.5q0 11 8 20.5t20 11.5zM224 64q13 0 22.5 -9.5t9.5 -22.5t-9.5 -22.5
t-22.5 -9.5t-22.5 9.5t-9.5 22.5t9.5 22.5t22.5 9.5zM416 64q13 0 22.5 -9.5t9.5 -22.5t-9.5 -22.5t-22.5 -9.5t-22.5 9.5t-9.5 22.5t9.5 22.5t22.5 9.5z" />
    <glyph glyph-name="chat" unicode="&#xf146;" 
d="M0 448h320v-64h-192v-192h-64l-64 -64v320zM192 320h320v-320l-64 64h-256v256z" />
    <glyph glyph-name="check" unicode="&#xf147;" 
d="M410 384l92 -90l-46 -46l-224 -224l-46 -46l-44 46l-96 96l-46 46l90 90l46 -46l52 -50l178 178z" />
    <glyph glyph-name="chevron-bottom" unicode="&#xf148;" 
d="M96 384l160 -160l160 160l96 -96l-256 -256l-256 256z" />
    <glyph glyph-name="chevron-left" unicode="&#xf149;" 
d="M320 448l96 -96l-160 -160l160 -160l-96 -96l-256 256z" />
    <glyph glyph-name="chevron-right" unicode="&#xf14a;" 
d="M160 448l256 -256l-256 -256l-96 96l160 160l-160 160z" />
    <glyph glyph-name="chevron-top" unicode="&#xf14b;" 
d="M256 384l256 -256l-96 -96l-160 160l-160 -160l-96 96z" />
    <glyph glyph-name="circle-check" unicode="&#xf14c;" 
d="M256 448q106 0 181 -75t75 -181t-75 -181t-181 -75t-181 75t-75 181t75 181t181 75zM384 334l-160 -160l-64 64l-46 -46l110 -110l206 206z" />
    <glyph glyph-name="circle-x" unicode="&#xf14d;" 
d="M256 448q106 0 181 -75t75 -181t-75 -181t-181 -75t-181 75t-75 181t75 181t181 75zM160 334l-46 -46l96 -96l-96 -96l46 -46l96 96l96 -96l46 46l-96 96l96 96l-46 46l-96 -96z" />
    <glyph glyph-name="clipboard" unicode="&#xf14e;" 
d="M224 448q13 0 22.5 -9.5t9.5 -22.5v-32h48q16 0 16 -16v-48h-192v48q0 16 16 16h48v32q0 13 9.5 22.5t22.5 9.5zM16 384h48v-128h320v128h48q16 0 16 -16v-416q0 -16 -16 -16h-416q-16 0 -16 16v416q0 16 16 16z" />
    <glyph glyph-name="clock" unicode="&#xf14f;" 
d="M256 448q106 0 181 -75t75 -181t-75 -181t-181 -75t-181 75t-75 181t75 181t181 75zM256 384q-80 0 -136 -56t-56 -136t56 -136t136 -56t136 56t56 136t-56 136t-136 56zM224 320v-1h64v-116l22 -22l24 -22l-46 -46l-22 25l-32 32l-10 8v142z" />
    <glyph glyph-name="cloud-download" unicode="&#xf150;" 
d="M288 448q66 0 113 -47t47 -113v-32q28 -10 46 -37.5t18 -58.5q0 -17 -6 -32h-122v32q0 40 -28 68t-68 28t-68 -28t-28 -68v-32h-174q-18 31 -18 64q0 53 37.5 90.5t90.5 37.5q11 55 56.5 91.5t103.5 36.5zM278 192h2h2q3 1 6 1q13 0 22.5 -9.5t9.5 -22.5v-1v-96h96
l-128 -128l-128 128h96v96v2q0 9 6.5 18t15.5 12z" />
    <glyph glyph-name="cloud-upload" unicode="&#xf151;" 
d="M288 448q66 0 113 -47t47 -113v-32q28 -10 46 -37.5t18 -58.5q0 -17 -6 -32h-90l-128 128l-128 -128h-142q-18 31 -18 64q0 53 37.5 90.5t90.5 37.5q11 55 56.5 91.5t103.5 36.5zM288 160l160 -160h-128v-32q0 -13 -9.5 -22.5t-22.5 -9.5t-22.5 9.5t-9.5 22.5v32h-128z
" />
    <glyph glyph-name="cloud" unicode="&#xf152;" 
d="M288 384q66 0 113 -47t47 -113v-32q28 -10 46 -37.5t18 -58.5q0 -40 -28 -68t-68 -28h-288q-53 0 -90.5 37.5t-37.5 90.5t37.5 90.5t90.5 37.5q11 55 56.5 91.5t103.5 36.5z" />
    <glyph glyph-name="cloudy" unicode="&#xf153;" 
d="M160 448q79 0 128 -64q-45 0 -86.5 -16.5t-72.5 -47t-49 -70.5q-35 -9 -64 -30q-16 32 -16 68q0 66 47 113t113 47zM288 320q66 0 113 -47t47 -113v-32q28 -10 46 -37.5t18 -58.5q0 -40 -28 -68t-68 -28h-288q-53 0 -90.5 37.5t-37.5 90.5t37.5 90.5t90.5 37.5
q11 55 56.5 91.5t103.5 36.5z" />
    <glyph glyph-name="code" unicode="&#xf154;" 
d="M320 384h64l-192 -384h-64zM64 320h64l-64 -128l64 -128h-64l-64 128zM384 320h64l64 -128l-64 -128h-64l64 128z" />
    <glyph glyph-name="cog" unicode="&#xf155;" 
d="M224 448h64l32 -76q3 -1 9 -4t9 -4l76 32l46 -47l-32 -76q6 -10 8 -18l77 -32v-64l-77 -32q-1 -3 -4 -9t-4 -9l32 -76l-46 -46l-76 32q-3 -2 -18 -8l-32 -76h-64l-32 76q-4 1 -10 4l-8 4l-76 -32l-46 46l32 76q-6 12 -8 18l-77 32v64l77 32q2 7 8 18l-32 76l46 47l76 -32
q12 6 18 8zM256 288q-40 0 -68 -28t-28 -68t28 -68t68 -28t68 28t28 68t-28 68t-68 28z" />
    <glyph glyph-name="collapse-down" unicode="&#xf156;" 
d="M0 448h512v-128h-512v128zM128 256h256l-128 -128zM0 0h512v-64h-512v64z" />
    <glyph glyph-name="collapse-left" unicode="&#xf157;" 
d="M0 448h64v-512h-64v512zM384 448h128v-512h-128v512zM320 320v-256l-128 128z" />
    <glyph glyph-name="collapse-right" unicode="&#xf158;" 
d="M0 448h128v-512h-128v512zM448 448h64v-512h-64v512zM192 320l128 -128l-128 -128v256z" />
    <glyph glyph-name="collapse-up" unicode="&#xf159;" 
d="M0 448h512v-64h-512v64zM256 256l128 -128h-256zM0 64h512v-128h-512v128z" />
    <glyph glyph-name="command" unicode="&#xf15a;" 
d="M96 448q40 0 68 -28t28 -68v-32h64v32q0 40 28 68t68 28t68 -28t28 -68t-28 -68t-68 -28h-32v-64h32q40 0 68 -28t28 -68t-28 -68t-68 -28t-68 28t-28 68v32h-64v-32q0 -40 -28 -68t-68 -28t-68 28t-28 68t28 68t68 28h32v64h-32q-40 0 -68 28t-28 68t28 68t68 28z
M96 384q-13 0 -22.5 -9.5t-9.5 -22.5t9.5 -22.5t22.5 -9.5h32v32q0 13 -9.5 22.5t-22.5 9.5zM352 384q-13 0 -22.5 -9.5t-9.5 -22.5v-32h32q13 0 22.5 9.5t9.5 22.5t-9.5 22.5t-22.5 9.5zM192 256v-64h64v64h-64zM96 128q-13 0 -22.5 -9.5t-9.5 -22.5t9.5 -22.5t22.5 -9.5
t22.5 9.5t9.5 22.5v32h-32zM320 128v-32q0 -13 9.5 -22.5t22.5 -9.5t22.5 9.5t9.5 22.5t-9.5 22.5t-22.5 9.5h-32z" />
    <glyph glyph-name="comment-square" unicode="&#xf15b;" 
d="M6 448v1h500q6 0 6 -6v-506l-128 128h-378q-6 0 -6 5v372q0 6 6 6z" />
    <glyph glyph-name="compass" unicode="&#xf15c;" 
d="M256 448q106 0 181 -75t75 -181t-75 -181t-181 -75t-181 75t-75 181t75 181t181 75zM256 384q-80 0 -136 -56t-56 -136t56 -136t136 -56t136 56t56 136t-56 136t-136 56zM384 320l-64 -192l-192 -64l64 192zM256 224q-13 0 -22.5 -9.5t-9.5 -22.5t9.5 -22.5t22.5 -9.5
t22.5 9.5t9.5 22.5t-9.5 22.5t-22.5 9.5z" />
    <glyph glyph-name="contrast" unicode="&#xf15d;" 
d="M256 448q106 0 181 -75t75 -181t-75 -181t-181 -75t-181 75t-75 181t75 181t181 75zM256 384v-384q80 0 136 56t56 136t-56 136t-136 56z" />
    <glyph glyph-name="copywriting" unicode="&#xf15e;" 
d="M0 448h512v-64h-512v64zM0 320h320v-64h-320v64zM0 128h512v-64h-512v64zM0 0h384v-64h-384v64zM480 0q13 0 22.5 -9.5t9.5 -22.5t-9.5 -22.5t-22.5 -9.5t-22.5 9.5t-9.5 22.5t9.5 22.5t22.5 9.5z" />
    <glyph glyph-name="credit-card" unicode="&#xf15f;" 
d="M16 384h480q16 0 16 -16v-48h-512v48q0 16 16 16zM0 256h512v-240q0 -16 -16 -16h-480q-16 0 -16 16v240zM64 128v-64h64v64h-64zM192 128v-64h64v64h-64z" />
    <glyph glyph-name="crop" unicode="&#xf160;" 
d="M64 448h64v-64h288l64 64l32 -32l-64 -64v-288h64v-64h-64v-64h-64v64h-320v320h-64v64h64v64zM128 320v-224l224 224h-224zM384 288l-224 -224h224v224z" />
    <glyph glyph-name="dashboard" unicode="&#xf161;" 
d="M256 448q106 0 181 -75t75 -181t-75 -181t-181 -75t-181 75t-75 181t75 181t181 75zM256 384q-80 0 -136 -56t-56 -136t56 -136t136 -56t136 56t56 136t-56 136t-136 56zM256 320q13 0 22.5 -9.5t9.5 -22.5t-9.5 -22.5t-22.5 -9.5t-22.5 9.5t-9.5 22.5t9.5 22.5t22.5 9.5
zM150 256v1h2h2h4q14 0 24 -11l58 -58q15 4 16 4q26 0 45 -19t19 -45t-19 -45t-45 -19t-45 19t-19 45q0 1 4 16l-58 58q-10 10 -10 24q0 9 6.5 18t15.5 12zM352 256q13 0 22.5 -9.5t9.5 -22.5t-9.5 -22.5t-22.5 -9.5t-22.5 9.5t-9.5 22.5t9.5 22.5t22.5 9.5z" />
    <glyph glyph-name="data-transfer-download" unicode="&#xf162;" 
d="M192 448h128v-192h128l-192 -192l-192 192h128v192zM0 0h512v-64h-512v64z" />
    <glyph glyph-name="data-transfer-upload" unicode="&#xf163;" 
d="M0 448h512v-64h-512v64zM256 320l192 -192h-128v-192h-128v192h-128z" />
    <glyph glyph-name="delete" unicode="&#xf164;" 
d="M128 384h384v-384h-384l-128 192zM224 334l-46 -46l96 -96l-96 -96l46 -46l96 96l96 -96l46 46l-96 96l96 96l-46 46l-96 -96z" />
    <glyph glyph-name="dial" unicode="&#xf165;" 
d="M256 384q106 0 181 -75t75 -181h-64q0 80 -56 136t-136 56t-136 -56t-56 -136h-64q0 106 75 181t181 75zM218 250l38 -56l38 56q40 -12 65 -45.5t25 -76.5q0 -53 -37.5 -90.5t-90.5 -37.5t-90.5 37.5t-37.5 90.5q0 43 25.5 76.5t64.5 45.5z" />
    <glyph glyph-name="document" unicode="&#xf166;" 
d="M0 448h192v-256h256v-256h-448v512zM256 448l192 -192h-192v192zM64 320v-64h64v64h-64zM64 192v-64h64v64h-64zM64 64v-64h256v64h-256z" />
    <glyph glyph-name="dollar" unicode="&#xf167;" 
d="M192 448h64v-64h48q32 0 52 -14q28 -18 28 -50v-64h-64v60q-8 4 -16 4h-160q-16 0 -16 -16v-32q0 -5 3.5 -11t8.5 -11t10 -6l164 -42q31 -9 50 -33.5t19 -57.5v-32q0 -33 -23.5 -56.5t-56.5 -23.5h-48v-64h-64v64h-48q-31 0 -51 14q-29 18 -29 50v64h64v-60q8 -4 16 -4
h160q7 0 11.5 5t4.5 11v32q0 5 -3.5 11t-8.5 11t-9 7l-164 42q-32 8 -51 32.5t-19 57.5v32q0 33 23.5 56.5t56.5 23.5h48v64z" />
    <glyph glyph-name="double-quote-sans-left" unicode="&#xf168;" 
d="M0 384h192v-192l-192 -192v384zM320 384h192v-192l-192 -192v384z" />
    <glyph glyph-name="double-quote-sans-right" unicode="&#xf169;" 
d="M192 384v-384h-192v192zM512 384v-384h-192v192z" />
    <glyph glyph-name="double-quote-serif-left" unicode="&#xf16a;" 
d="M192 384v-64q-53 0 -90.5 -37.5t-37.5 -90.5h128v-192h-192v192q0 79 56.5 135.5t135.5 56.5zM512 384v-64q-53 0 -90.5 -37.5t-37.5 -90.5h128v-192h-192v192q0 79 56.5 135.5t135.5 56.5z" />
    <glyph glyph-name="double-quote-serif-right" unicode="&#xf16b;" 
d="M0 384h192v-192q0 -79 -56.5 -135.5t-135.5 -56.5v64q53 0 90.5 37.5t37.5 90.5h-128v192zM320 384h192v-192q0 -79 -56.5 -135.5t-135.5 -56.5v64q53 0 90.5 37.5t37.5 90.5h-128v192z" />
    <glyph glyph-name="droplet" unicode="&#xf16c;" 
d="M256 448l22 -22q4 -4 11.5 -12t25 -28.5t33.5 -41.5t35 -50.5t32.5 -58t23 -61t9.5 -60.5q0 -79 -56.5 -135.5t-135.5 -56.5t-135.5 56.5t-56.5 135.5q0 39 17.5 86t39.5 82.5t51 71.5t41.5 50t20.5 22zM160 146q-13 0 -22.5 -9.5t-9.5 -22.5q0 -53 37.5 -90.5
t90.5 -37.5q13 0 22.5 9t9.5 22.5t-9.5 23t-22.5 9.5q-26 0 -45 19t-19 45q0 13 -9.5 22.5t-22.5 9.5z" />
    <glyph glyph-name="eject" unicode="&#xf16d;" 
d="M256 448l256 -320h-512zM0 64h512v-128h-512v128z" />
    <glyph glyph-name="elevator" unicode="&#xf16e;" 
d="M256 448l192 -192h-384zM64 128h384l-192 -192z" />
    <glyph glyph-name="ellipses" unicode="&#xf16f;" 
d="M0 256h128v-128h-128v128zM192 256h128v-128h-128v128zM384 256h128v-128h-128v128z" />
    <glyph glyph-name="envelope-closed" unicode="&#xf170;" 
d="M0 384h512v-64l-256 -128l-256 128v64zM0 256l256 -128l256 128v-256h-512v256z" />
    <glyph glyph-name="envelope-open" unicode="&#xf171;" 
d="M256 448l256 -128v-384h-512v384zM256 376l-192 -96v-121l192 -96l192 96v121zM128 255h256v-64l-128 -64l-128 64v64z" />
    <glyph glyph-name="euro" unicode="&#xf172;" 
d="M320 448h1q63 0 122 -32l-10 -68q-51 36 -112 36q-62 0 -111 -35.5t-69 -92.5h212l-11 -64h-213q0 -29 12 -64h190l-10 -64h-142q57 -64 142 -64q73 0 128 50v-78q-61 -36 -128 -36q-70 0 -128 35t-93 93h-163l12 64h126q-10 36 -10 64h-129l16 64h122q22 84 90 138
t156 54z" />
    <glyph glyph-name="excerpt" unicode="&#xf173;" 
d="M0 448h448v-64h-448v64zM0 320h320v-64h-320v64zM0 192h512v-64h-512v64zM0 64h64v-64h-64v64zM128 64h64v-64h-64v64zM256 64h64v-64h-64v64z" />
    <glyph glyph-name="expand-down" unicode="&#xf174;" 
d="M0 448h512v-64h-512v64zM128 320h256l-128 -128zM0 64h512v-128h-512v128z" />
    <glyph glyph-name="expand-left" unicode="&#xf175;" 
d="M0 448h64v-512h-64v512zM384 448h128v-512h-128v512zM128 320l128 -128l-128 -128v256z" />
    <glyph glyph-name="expand-right" unicode="&#xf176;" 
d="M0 448h128v-512h-128v512zM448 448h64v-512h-64v512zM384 320v-256l-128 128z" />
    <glyph glyph-name="expand-up" unicode="&#xf177;" 
d="M0 448h512v-128h-512v128zM256 192l128 -128h-256zM0 0h512v-64h-512v64z" />
    <glyph glyph-name="external-link" unicode="&#xf178;" 
d="M0 448h128v-64h-64v-384h384v64h64v-128h-512v512zM256 448h256v-256l-96 96l-160 -160l-64 64l160 160z" />
    <glyph glyph-name="eye" unicode="&#xf179;" 
d="M258 384q44 0 86.5 -20t71.5 -48t51.5 -56t33.5 -48l11 -20q-4 -8 -11.5 -21t-32.5 -46t-52.5 -58t-70.5 -46t-87 -21q-33 0 -65 10.5t-57 27.5t-47.5 37.5t-38 41t-27.5 37.5t-17 27l-6 11q2 4 6 11t17 27t27.5 38t38 40t47.5 38t56.5 27t65.5 11zM256 320
q-53 0 -90.5 -37.5t-37.5 -90.5t37.5 -90.5t90.5 -37.5t90.5 37.5t37.5 90.5t-37.5 90.5t-90.5 37.5zM256 256q6 0 18 -4q-18 -9 -18 -28q0 -13 9.5 -22.5t22.5 -9.5q19 0 28 18q4 -17 4 -18q0 -26 -19 -45t-45 -19t-45 19t-19 45t19 45t45 19z" />
    <glyph glyph-name="eyedropper" unicode="&#xf17a;" 
d="M212 448v1h2h2h6q15 0 24 -11l61 -60l42 42q27 28 68 28t68 -28q28 -28 28 -68t-28 -68l-42 -42l60 -60q11 -10 11 -24q0 -13 -9.5 -22.5t-22.5 -9.5q-15 0 -25 12l-40 42l-235 -234l-10 -11h-172v174l10 11l230 234l-40 40q-10 10 -10 24q0 9 6.5 18t15.5 12zM286 308
l-200 -202l82 -84l202 202z" />
    <glyph glyph-name="file" unicode="&#xf17b;" 
d="M0 448h192v-256h256v-256h-448v512zM256 448l192 -192h-192v192z" />
    <glyph glyph-name="fire" unicode="&#xf17c;" 
d="M128 448q5 -3 13.5 -8t31 -23t39 -38.5t30.5 -53.5t14 -69q0 -35 -19.5 -70.5t-44 -61t-47 -58t-28.5 -61t11 -69.5q-5 3 -13.5 8t-31 23t-39 38.5t-30.5 53.5t-14 69q0 35 19.5 70.5t44 60.5t47 57.5t28.5 61t-11 70.5zM320 256q5 -3 13.5 -8t31 -23t39 -38.5
t30.5 -53.5t14 -69q0 -65 -20 -96.5t-44 -31.5h-192q0 35 19.5 70.5t44 60.5t47 57.5t28.5 61t-11 70.5z" />
    <glyph glyph-name="flag" unicode="&#xf17d;" 
d="M0 448h64v-512h-64v512zM128 448h192v-64h192l-128 -130l128 -126h-256v64h-128v256z" />
    <glyph glyph-name="flash" unicode="&#xf17e;" 
d="M224 448h96l-64 -128h128l-96 -192h96l-192 -192l-64 192h86l42 128h-128z" />
    <glyph glyph-name="folder" unicode="&#xf17f;" 
d="M0 448h192v-64h320v-64h-512v128zM0 256h512v-288q0 -13 -9.5 -22.5t-22.5 -9.5h-448q-13 0 -22.5 9.5t-9.5 22.5v288z" />
    <glyph glyph-name="fork" unicode="&#xf180;" 
d="M96 448q40 0 68 -28t28 -68q0 -31 -17.5 -56t-46.5 -34v-76q17 5 32 5h128q13 0 22.5 9.5t9.5 22.5v38q-29 10 -46.5 34.5t-17.5 55.5q0 40 28 68t68 28t68 -28t28 -68q0 -31 -17.5 -55.5t-46.5 -34.5v-38q0 -39 -28.5 -67.5t-67.5 -28.5h-128q-12 0 -22 -10
q25 -12 39.5 -34.5t14.5 -51.5q0 -39 -28 -67.5t-68 -28.5t-68 28.5t-28 67.5q0 32 17.5 56.5t46.5 34.5v140q-29 10 -46.5 34.5t-17.5 55.5q0 40 28 68t68 28z" />
    <glyph glyph-name="fullscreen-enter" unicode="&#xf181;" 
d="M0 448h256l-96 -96l96 -96l-64 -64l-96 96l-96 -96v256zM320 192l96 -96l96 96v-256h-256l96 96l-96 96z" />
    <glyph glyph-name="fullscreen-exit" unicode="&#xf182;" 
d="M64 448l96 -96l96 96v-256h-256l96 96l-96 96zM256 192h256l-96 -96l96 -96l-64 -64l-96 96l-96 -96v256z" />
    <glyph glyph-name="globe" unicode="&#xf183;" 
d="M256 448q106 0 181 -75t75 -181t-75 -181t-181 -75t-181 75t-75 181t75 181t181 75zM256 384v-1q-51 0 -98 -28q10 -10 14 -12q14 -9 10 -20.5t-18 -17.5q-6 -2 -20 -2.5t-20 -4.5t-2 -19q3 -13 0 -15.5t-7.5 0t-11.5 5t-11 0.5q-13 -11 -5 -32.5t18.5 -44t5.5 -23.5
q-3 -1 -10 4.5t-14.5 11.5t-12.5 6q-7 0 -11 -6q1 -19 13 -54q5 -2 30 -4.5t34 -11.5q23 -14 40.5 -47.5t7.5 -54.5q35 -14 67 -14q49 0 90.5 21.5t67.5 58.5q4 29 -32 29q-100 0 -97 62q0 11 15.5 30t25.5 35.5t1 26.5q-8 11 -6 15.5t8 12.5t6 14q0 13 -21.5 20.5
t-22.5 11.5q-1 3 0 6.5t4.5 7.5t5.5 6.5t8.5 8t7.5 7.5q-36 12 -60 12zM404 314q-14 -4 -27 -9t-22.5 -12t-6.5 -13q2 -5 19 -4.5t23 -3.5q2 -2 5 -8.5t5 -10.5t7 -6t11 5l14 14v2q-12 27 -28 46z" />
    <glyph glyph-name="graph" unicode="&#xf184;" 
d="M450 448l62 -64l-256 -256l-64 64l-128 -130l-64 64l192 194l64 -64zM0 0h512v-64h-512v64z" />
    <glyph glyph-name="grid-four-up" unicode="&#xf185;" 
d="M0 448h64v-64h-64v64zM128 448h64v-64h-64v64zM256 448h64v-64h-64v64zM384 448h64v-64h-64v64zM0 320h64v-64h-64v64zM128 320h64v-64h-64v64zM256 320h64v-64h-64v64zM384 320h64v-64h-64v64zM0 192h64v-64h-64v64zM128 192h64v-64h-64v64zM256 192h64v-64h-64v64z
M384 192h64v-64h-64v64zM0 64h64v-64h-64v64zM128 64h64v-64h-64v64zM256 64h64v-64h-64v64zM384 64h64v-64h-64v64z" />
    <glyph glyph-name="grid-three-up" unicode="&#xf186;" 
d="M0 448h128v-128h-128v128zM192 448h128v-128h-128v128zM384 448h128v-128h-128v128zM0 256h128v-128h-128v128zM192 256h128v-128h-128v128zM384 256h128v-128h-128v128zM0 64h128v-128h-128v128zM192 64h128v-128h-128v128zM384 64h128v-128h-128v128z" />
    <glyph glyph-name="grid-two-up" unicode="&#xf187;" 
d="M0 448h192v-192h-192v192zM320 448h192v-192h-192v192zM0 128h192v-192h-192v192zM320 128h192v-192h-192v192z" />
    <glyph glyph-name="hard-drive" unicode="&#xf188;" 
d="M12 448h424q12 0 12 -12v-212q0 -13 -9.5 -22.5t-22.5 -9.5h-384q-13 0 -22.5 9.5t-9.5 22.5v212q0 12 12 12zM0 134h1q18 -6 32 -6h384q16 0 32 6v-186q0 -13 -13 -13h-424q-12 0 -12 13v186zM352 64q-13 0 -22.5 -9.5t-9.5 -22.5t9.5 -22.5t22.5 -9.5t22.5 9.5
t9.5 22.5t-9.5 22.5t-22.5 9.5z" />
    <glyph glyph-name="header" unicode="&#xf189;" 
d="M0 448h192v-64h-32q-13 0 -22.5 -9.5t-9.5 -22.5v-96h192v96q0 13 -9.5 22.5t-22.5 9.5h-32v64h192v-64h-32q-13 0 -22.5 -9.5t-9.5 -22.5v-256q0 -13 9.5 -22.5t22.5 -9.5h32v-64h-192v64h32q13 0 22.5 9.5t9.5 22.5v96h-192v-96q0 -13 9.5 -22.5t22.5 -9.5h32v-64h-192
v64h32q13 0 22.5 9.5t9.5 22.5v256q0 13 -9.5 22.5t-22.5 9.5h-32v64z" />
    <glyph glyph-name="headphones" unicode="&#xf18a;" 
d="M256 448q79 0 135.5 -56.5t56.5 -135.5v-64h32q13 0 22.5 -9.5t9.5 -22.5v-128q0 -13 -9.5 -22.5t-22.5 -9.5h-64q-13 0 -22.5 9.5t-9.5 22.5v224q0 53 -37.5 90.5t-90.5 37.5t-90.5 -37.5t-37.5 -90.5v-224q0 -13 -9.5 -22.5t-22.5 -9.5h-64q-13 0 -22.5 9.5t-9.5 22.5
v128q0 13 9.5 22.5t22.5 9.5h32v64q0 79 56.5 135.5t135.5 56.5z" />
    <glyph glyph-name="heart" unicode="&#xf18b;" 
d="M128 384q52 0 90 -38q38 -39 38 -90q0 52 38 90q39 38 90 38q52 0 90 -38q38 -39 38 -90q0 -52 -38 -90l-218 -218l-218 218q-38 39 -38 90q0 52 38 90q39 38 90 38z" />
    <glyph glyph-name="home" unicode="&#xf18c;" 
d="M256 448l256 -192l-64 2v-258h-128v128h-128v-128h-128v256h-64z" />
    <glyph glyph-name="image" unicode="&#xf18d;" 
d="M0 448h512v-512h-512v512zM64 384v-192l64 64l256 -256h64v64l-128 128l64 64l64 -64v192h-384z" />
    <glyph glyph-name="inbox" unicode="&#xf18e;" 
d="M12 448h488q13 0 13 -12v-488q0 -13 -13 -13h-488q-12 0 -12 13v488q0 12 12 12zM64 320v-192h64l64 -64h128l64 64h64v192h-384z" />
    <glyph glyph-name="infinity" unicode="&#xf18f;" 
d="M128 320q35 0 65.5 -20.5t62.5 -57.5q21 24 38.5 39.5t41 27t48.5 11.5q59 0 93.5 -38.5t34.5 -89.5t-34.5 -89.5t-93.5 -38.5q-36 0 -65.5 20.5t-62.5 57.5q-32 -37 -62.5 -57.5t-65.5 -20.5q-59 0 -93.5 38.5t-34.5 89.5t34.5 89.5t93.5 38.5zM128 256q-33 0 -48.5 -19
t-15.5 -45t15.5 -45t48.5 -19q30 0 86 64q-56 64 -86 64zM384 256q-13 0 -28.5 -9.5t-27.5 -22t-30 -32.5q55 -64 86 -64q33 0 48.5 19t15.5 45t-15.5 45t-48.5 19z" />
    <glyph glyph-name="info" unicode="&#xf190;" 
d="M320 448q26 0 45 -19t19 -45t-19 -45t-45 -19t-45 19t-19 45t19 45t45 19zM224 288q40 0 68 -28.5t28 -67.5q0 -24 -32 -87.5t-32 -72.5q0 -13 9.5 -22.5t22.5 -9.5t22.5 9.5t9.5 22.5h64q0 -40 -28 -68t-68 -28t-68 27.5t-28 68.5q0 32 32 94t32 66q0 13 -9.5 22.5
t-22.5 9.5t-22.5 -9.5t-9.5 -22.5h-64q0 40 28 68t68 28z" />
    <glyph glyph-name="italic" unicode="&#xf191;" 
d="M128 448h320v-64h-78l-22 -56l-128 -320l-4 -9h105v-64h-320v64h78l21 57l128 320l4 8h-104v64z" />
    <glyph glyph-name="justify-center" unicode="&#xf192;" 
d="M0 448h512v-64h-512v64zM0 320h512v-64h-512v64zM0 192h512v-64h-512v64zM64 64h384v-64h-384v64z" />
    <glyph glyph-name="justify-left" unicode="&#xf193;" 
d="M0 448h512v-64h-512v64zM0 320h512v-64h-512v64zM0 192h512v-64h-512v64zM0 64h384v-64h-384v64z" />
    <glyph glyph-name="justify-right" unicode="&#xf194;" 
d="M0 448h512v-64h-512v64zM0 320h512v-64h-512v64zM0 192h512v-64h-512v64zM128 64h384v-64h-384v64z" />
    <glyph glyph-name="key" unicode="&#xf195;" 
d="M352 448q66 0 113 -47t47 -113t-47 -113t-113 -47q-20 0 -30 2l-2 -2v-64h-128v-128h-192v128l194 194q-2 10 -2 30q0 66 47 113t113 47zM384 384q-26 0 -45 -19t-19 -45t19 -45t45 -19t45 19t19 45t-19 45t-45 19z" />
    <glyph glyph-name="laptop" unicode="&#xf196;" 
d="M86 384h1h2h2h2.5h3.5h320q13 0 22.5 -9.5t9.5 -22.5v-224h64v-96q0 -13 -9.5 -22.5t-22.5 -9.5h-449q-13 0 -22.5 9.5t-9.5 22.5v96h64v224v2q0 9 6.5 18t15.5 12zM128 320v-192h64v-64h128v64h64v192h-256z" />
    <glyph glyph-name="layers" unicode="&#xf197;" 
d="M0 448h256v-256h-256v256zM320 320h64v-256h-256v64h192v192zM448 192h64v-256h-256v64h192v192z" />
    <glyph glyph-name="lightbulb" unicode="&#xf198;" 
d="M282 448h6q13 0 22.5 -9t9.5 -23q0 -8 -5.5 -16.5t-12.5 -11.5l-192 -96q-8 -7 -19 -7q-13 0 -22.5 9.5t-9.5 22.5q0 10 6.5 19t16.5 12l192 96q4 3 8 4zM346 352h6q13 0 22.5 -9t9.5 -23q0 -8 -5.5 -16.5t-12.5 -11.5l-256 -128q-8 -7 -19 -7q-13 0 -22.5 9.5t-9.5 22.5
q0 10 6.5 19t16.5 12l256 128q4 3 8 4zM346 224h6q13 0 22.5 -9t9.5 -23q0 -8 -5.5 -16.5t-12.5 -11.5l-68 -36q12 -2 20 -11.5t8 -20.5q0 -13 -9.5 -22.5t-23.5 -9.5h-5h-128q-13 0 -22 9.5t-9 22.5q0 19 17 28l192 96q4 3 8 4zM182 0h1h2h2h2.5h3.5h64q13 0 22.5 -9.5
t9.5 -22.5t-9.5 -22.5t-22.5 -9.5h-64h-5q-14 0 -23.5 9.5t-9.5 22.5q0 11 8 20.5t19 11.5z" />
    <glyph glyph-name="link-broken" unicode="&#xf199;" 
d="M128 448h64v-128h-128v64h64v64zM376 446l1 -1q22 2 36 -1q36 -9 62 -34q37 -37 37 -90t-37 -90l-96 -96q-10 -15 -27 -15q-13 0 -22.5 9.5t-9.5 22.5q0 17 15 27l96 96q18 19 18 46t-18 46q-13 13 -32.5 16.5t-35.5 -2.5t-24 -14l-29 -28q-9 -15 -27 -15
q-13 0 -22.5 9.5t-9.5 22.5q0 18 15 27l28 28q20 20 48 30q13 5 34 6zM147 260h-1h2h2h5q13 0 22.5 -9.5t9.5 -22.5t-9 -22l-96 -96q-19 -19 -19 -46t19 -46q13 -13 32 -16.5t36 2.5q16 6 24 14l28 28q10 15 27 15q14 0 23 -9.5t9 -22.5q0 -18 -15 -27l-28 -28
q-19 -20 -48 -30q-33 -13 -69 -5t-63 35q-37 37 -37 89.5t37 90.5l96 96q5 6 13 10zM321 64h128v-64h-64v-64h-64v128z" />
    <glyph glyph-name="link-intact" unicode="&#xf19a;" 
d="M376 446v-1q22 2 36 -1q36 -9 62 -34q38 -37 38 -90t-38 -90l-96 -96q-53 -54 -116 -50q-28 2 -53 16q-17 9 -17 28q0 13 9.5 22.5t23.5 9.5q8 0 16 -4q9 -8 26 -8q36 -2 68 30l96 96q18 19 18 46t-18 46q-13 13 -32.5 16.5t-35.5 -2.5t-24 -14q-10 -15 -27 -15
q-14 0 -23 9.5t-9 22.5q0 18 14 27q20 20 48 30q13 5 34 6zM248 298v2q15 -1 25 -3.5t18 -6.5t11 -5q10 -2 16.5 -11t6.5 -19q0 -14 -9.5 -23t-22.5 -9q-11 0 -19 6q-12 5 -30 6q-37 1 -66 -28l-96 -96q-19 -19 -19 -46.5t19 -45.5q13 -14 32 -17.5t36 2.5q16 6 24 15
q10 14 27 14q13 0 22.5 -9t9.5 -23q0 -17 -15 -27q-19 -19 -48 -30q-33 -12 -69 -4t-63 34q-37 37 -37 90t37 90l96 96q50 51 114 48z" />
    <glyph glyph-name="list-rich" unicode="&#xf19b;" 
d="M0 448h192v-192h-192v192zM256 448h256v-64h-256v64zM256 320h192v-64h-192v64zM0 192h192v-192h-192v192zM256 192h256v-64h-256v64zM256 64h192v-64h-192v64z" />
    <glyph glyph-name="list" unicode="&#xf19c;" 
d="M32 448q13 0 22.5 -9.5t9.5 -22.5t-9.5 -22.5t-22.5 -9.5t-22.5 9.5t-9.5 22.5t9.5 22.5t22.5 9.5zM128 448h384v-64h-384v64zM32 320q13 0 22.5 -9.5t9.5 -22.5t-9.5 -22.5t-22.5 -9.5t-22.5 9.5t-9.5 22.5t9.5 22.5t22.5 9.5zM128 320h384v-64h-384v64zM32 192
q13 0 22.5 -9.5t9.5 -22.5t-9.5 -22.5t-22.5 -9.5t-22.5 9.5t-9.5 22.5t9.5 22.5t22.5 9.5zM128 192h384v-64h-384v64zM32 64q13 0 22.5 -9.5t9.5 -22.5t-9.5 -22.5t-22.5 -9.5t-22.5 9.5t-9.5 22.5t9.5 22.5t22.5 9.5zM128 64h384v-64h-384v64z" />
    <glyph glyph-name="location" unicode="&#xf19d;" 
d="M512 448l-256 -512l-64 192l-192 64z" />
    <glyph glyph-name="lock-locked" unicode="&#xf19e;" 
d="M256 448q53 0 90.5 -37.5t37.5 -90.5v-64h64v-256h-384v256h64v64q0 53 37.5 90.5t90.5 37.5zM256 384q-27 0 -45.5 -18.5t-18.5 -45.5v-64h128v64q0 27 -18.5 45.5t-45.5 18.5z" />
    <glyph glyph-name="lock-unlocked" unicode="&#xf19f;" 
d="M256 448q53 0 90.5 -37.5t37.5 -90.5v-128h64v-256h-384v256h256v128q0 27 -18.5 45.5t-45.5 18.5t-45.5 -18.5t-18.5 -45.5h-64q0 53 37.5 90.5t90.5 37.5z" />
    <glyph glyph-name="loop-circular" unicode="&#xf1a0;" 
d="M256 384v-64q-53 0 -90.5 -37.5t-37.5 -90.5h64l-96 -128l-96 128h64q0 79 56.5 135.5t135.5 56.5zM416 320l96 -128h-64q0 -79 -56.5 -135.5t-135.5 -56.5v64q53 0 90.5 37.5t37.5 90.5h-64z" />
    <glyph glyph-name="loop-square" unicode="&#xf1a1;" 
d="M64 448h384v-192h64l-96 -160l-96 160h64v128h-256v-64h-64v128zM96 288l96 -160h-64v-128h256v64h64v-128h-384v192h-64z" />
    <glyph glyph-name="loop" unicode="&#xf1a2;" 
d="M384 448l128 -96l-128 -96v64h-320v-64h-64v64q0 26 19 45t45 19h320v64zM128 192v-64h320v64h64v-64q0 -26 -19 -45t-45 -19h-320v-64l-128 96z" />
    <glyph glyph-name="magnifying-glass" unicode="&#xf1a3;" 
d="M224 448l1 1q92 0 158 -66t66 -158q0 -55 -29 -107q6 -3 11 -8l64 -64q9 -8 15.5 -22.5t6.5 -26.5q0 -27 -19.5 -46t-46.5 -19q-12 0 -26 6.5t-22 15.5l-64 64q-5 4 -9 8q-47 -26 -106 -26q-93 0 -158.5 65.5t-65.5 158.5t65.5 158.5t158.5 65.5zM224 384l-1 -1
q-66 0 -113 -46.5t-47 -113t47 -113.5t113 -47q64 0 109 41q3 4 8 8l2 2q42 45 42 110q0 67 -46.5 113.5t-113.5 46.5z" />
    <glyph glyph-name="map-marker" unicode="&#xf1a4;" 
d="M256 448q80 0 136 -56t56 -136q0 -36 -20 -82t-48 -86.5t-56 -75.5t-48 -56l-20 -20q-8 8 -21 21.5t-46 53.5t-58 77.5t-46 84.5t-21 83q0 80 56 136t136 56zM256 384q-53 0 -90.5 -37.5t-37.5 -90.5t37.5 -90.5t90.5 -37.5t90.5 37.5t37.5 90.5t-37.5 90.5t-90.5 37.5z
" />
    <glyph glyph-name="map" unicode="&#xf1a5;" 
d="M0 448v1h512v-347q1 -3 1 -6.5t-1 -7.5v-152h-512v512zM64 384v-384h384v64h-96h-3q-9 0 -16 4t-11.5 11.5t-4.5 16.5q0 12 8.5 21.5t20.5 10.5h3.5h2.5h96v256h-384zM224 320q40 0 68 -28t28 -68q0 -28 -24 -68t-48 -66l-24 -26q-11 11 -27 28.5t-42.5 60.5t-26.5 71
q0 40 28 68t68 28zM224 256q-13 0 -22.5 -9.5t-9.5 -22.5t9.5 -22.5t22.5 -9.5t22.5 9.5t9.5 22.5t-9.5 22.5t-22.5 9.5z" />
    <glyph glyph-name="media-pause" unicode="&#xf1a6;" 
d="M64 384h128v-384h-128v384zM320 384h128v-384h-128v384z" />
    <glyph glyph-name="media-play" unicode="&#xf1a7;" 
d="M64 384l384 -192l-384 -192v384z" />
    <glyph glyph-name="media-record" unicode="&#xf1a8;" 
d="M256 384q80 0 136 -56t56 -136t-56 -136t-136 -56t-136 56t-56 136t56 136t136 56z" />
    <glyph glyph-name="media-skip-backward" unicode="&#xf1a9;" 
d="M256 384v-384l-256 192zM256 192l256 192v-384z" />
    <glyph glyph-name="media-skip-forward" unicode="&#xf1aa;" 
d="M0 384l256 -192l-256 -192v384zM256 192v192l256 -192l-256 -192v192z" />
    <glyph glyph-name="media-step-backward" unicode="&#xf1ab;" 
d="M0 384h128v-384h-128v384zM128 192l320 192v-384z" />
    <glyph glyph-name="media-step-forward" unicode="&#xf1ac;" 
d="M0 384l320 -192l-320 -192v384zM320 192v192h128v-384h-128v192z" />
    <glyph glyph-name="media-stop" unicode="&#xf1ad;" 
d="M64 384h384v-384h-384v384z" />
    <glyph glyph-name="medical-cross" unicode="&#xf1ae;" 
d="M128 448h256v-128h128v-256h-128v-128h-256v128h-128v256h128v128z" />
    <glyph glyph-name="menu" unicode="&#xf1af;" 
d="M0 384h512v-64h-512v64zM0 194h512v-64h-512v64zM0 2h512v-64h-512v64z" />
    <glyph glyph-name="microphone" unicode="&#xf1b0;" 
d="M250 450h6q27 0 45.5 -18.5t18.5 -45.5v-2v-128q0 -26 -19 -45t-45 -19t-45 19t-19 45v128v2q0 21 14.5 39t35.5 23zM86 320h2h2h2q2 1 5 1q14 0 23 -9.5t9 -22.5v-1v-32q0 -53 37.5 -90.5t91 -37.5t90.5 37.5t37 90.5v32q0 13 9.5 22.5t23 9.5t22.5 -9.5t9 -22.5v-32
q0 -70 -45.5 -123.5t-114.5 -64.5v-68h32q27 0 45.5 -19t18.5 -45h-256q0 17 8.5 32t23 23.5t32.5 8.5h32v68q-69 12 -114.5 65t-45.5 123v32v2q0 9 6 18t15 12z" />
    <glyph glyph-name="minus" unicode="&#xf1b1;" 
d="M0 256h512v-128h-512v128z" />
    <glyph glyph-name="monitor" unicode="&#xf1b2;" 
d="M22 448h2h2h3.5h2.5h448q13 0 22.5 -9.5t9.5 -22.5v-320q0 -13 -9.5 -22.5t-22.5 -9.5h-160v-64h64q26 0 45 -19t19 -45h-384q0 26 19 45t45 19h64v64h-160q-13 0 -22.5 9.5t-9.5 22.5v320v2q0 9 6.5 18t15.5 12zM64 384v-256h384v256h-384z" />
    <glyph glyph-name="moon" unicode="&#xf1b3;" 
d="M174 448q-14 -40 -14 -82q0 -106 75 -181t181 -75q39 0 82 14q-26 -77 -92.5 -125.5t-149.5 -48.5q-106 0 -181 75t-75 181q0 83 48.5 149.5t125.5 92.5z" />
    <glyph glyph-name="move" unicode="&#xf1b4;" 
d="M224 448l96 -96h-64v-96h96v64l96 -96l-96 -96v64h-96v-96h64l-96 -96l-96 96h64v96h-96v-64l-96 96l96 96v-64h96v96h-64z" />
    <glyph glyph-name="musical-note" unicode="&#xf1b5;" 
d="M512 448v-352q0 -40 -28 -68t-68 -28t-68 28t-28 68t28 68t68 28q15 0 32 -6v132q-171 -5 -256 -32v-254q0 -40 -28 -68t-68 -28t-68 28t-28 68t28 68t68 28q15 0 32 -6v262q3 3 9 7t34.5 15t67 19.5t111 15.5t162.5 7z" />
    <glyph glyph-name="paperclip" unicode="&#xf1b6;" 
d="M320 448l-1 -1q53 0 91 -37q37 -37 37 -90t-37 -90l-160 -156q-24 -24 -56.5 -24t-55.5 23.5t-23 56.5t23 56l62 62l44 -44l-58 -61l-4 -2q-12 -12 0 -24q12 -11 24 0l160 158q18 20 18.5 45.5t-18.5 44.5t-46 19t-46 -19l-178 -176q-32 -33 -32 -79t32 -79
q33 -33 80 -33t80 33l6 9l74 72l44 -44l-80 -80q-52 -52 -124.5 -52t-123.5 52q-52 52 -52 124.5t52 123.5l178 174q39 38 90 38z" />
    <glyph glyph-name="pencil" unicode="&#xf1b7;" 
d="M384 448l128 -128l-64 -64l-128 128zM256 320l128 -128l-256 -256h-128v128z" />
    <glyph glyph-name="people" unicode="&#xf1b8;" 
d="M352 448v-1q40 0 68 -37.5t28 -90.5q0 -34 -13 -63.5t-35 -47t-48 -17.5q-17 0 -38 13q6 24 6 51q0 81 -46 137q29 56 78 56zM160 384q40 0 68 -37.5t28 -90.5t-28 -90.5t-68 -37.5t-68 37.5t-28 90.5t28 90.5t68 37.5zM464 182q22 -10 35 -30.5t13 -45.5v-106h-128v42
q0 46 -28 86q64 2 108 54zM48 118q47 -54 112 -54q66 0 112 54q22 -11 35 -31.5t13 -44.5v-107h-320v107q0 24 13 44.5t35 31.5z" />
    <glyph glyph-name="person" unicode="&#xf1b9;" 
d="M256 448q53 0 90.5 -47t37.5 -113t-37.5 -113t-90.5 -47t-90.5 47t-37.5 113t37.5 113t90.5 47zM122 128q57 -64 134 -64t134 64q51 -2 86.5 -39t35.5 -89v-64h-512v64q0 52 35.5 89t86.5 39z" />
    <glyph glyph-name="phone" unicode="&#xf1ba;" 
d="M76 448h296q13 0 13 -12v-488q0 -13 -13 -13h-296q-12 0 -12 13v488q0 12 12 12zM128 384v-320h192v320h-192zM224 32q-13 0 -22.5 -9.5t-9.5 -22.5t9.5 -22.5t22.5 -9.5t22.5 9.5t9.5 22.5t-9.5 22.5t-22.5 9.5z" />
    <glyph glyph-name="pie-chart" unicode="&#xf1bb;" 
d="M224 448q17 0 32 -2v-254l-190 190q66 66 158 66zM320 380q82 -12 137 -74t55 -146q0 -93 -65.5 -158.5t-158.5 -65.5q-79 0 -142 52l174 174v218zM58 296l153 -149l-137 -137q-74 59 -74 150q0 80 58 136z" />
    <glyph glyph-name="pin" unicode="&#xf1bc;" 
d="M86 448h2h2h3.5h2.5h256q13 0 22.5 -9.5t9.5 -22.5t-9.5 -22.5t-22.5 -9.5h-32v-128h64q26 0 45 -19t19 -45h-192v-192l-36 -64l-28 64v192h-192q0 26 19 45t45 19h64v128h-32h-5q-14 0 -23.5 9.5t-9.5 22.5q0 11 8 20.5t20 11.5z" />
    <glyph glyph-name="play-circle" unicode="&#xf1bd;" 
d="M256 448q106 0 181 -75t75 -181t-75 -181t-181 -75t-181 75t-75 181t75 181t181 75zM192 320v-256l192 128z" />
    <glyph glyph-name="plus" unicode="&#xf1be;" 
d="M192 448h128v-192h192v-128h-192v-192h-128v192h-192v128h192v192z" />
    <glyph glyph-name="power-standby" unicode="&#xf1bf;" 
d="M192 448h64v-256h-64v256zM110 356l40 -50l-26 -20q-60 -48 -60 -126q0 -67 46.5 -113.5t113.5 -46.5t113.5 46.5t46.5 113.5q0 77 -62 126l-24 20l40 50l24 -20q40 -31 63 -77.5t23 -98.5q0 -93 -65.5 -158.5t-158.5 -65.5t-158.5 65.5t-65.5 158.5q0 52 23 98.5
t63 77.5z" />
    <glyph glyph-name="print" unicode="&#xf1c0;" 
d="M128 448h256v-128h-256v128zM6 256h500q6 0 6 -6v-180q0 -5 -6 -5h-58v128h-384v-128h-58q-6 0 -6 5v180q0 6 6 6zM128 128h256v-192h-256v192z" />
    <glyph glyph-name="project" unicode="&#xf1c1;" 
d="M0 448h64v-448h-64v448zM448 448h64v-448h-64v448zM128 384h128v-64h-128v64zM192 256h128v-64h-128v64zM256 128h128v-64h-128v64z" />
    <glyph glyph-name="pulse" unicode="&#xf1c2;" 
d="M208 448l30 -98l54 -170l30 76l26 66l32 -62l24 -48h109v-64h-148l-9 18l-37 -94l-34 -82l-26 86l-50 160l-50 -160l-30 -96l-30 94l-25 74h-74v64h120l6 -22l2 -4l50 164z" />
    <glyph glyph-name="puzzle-piece" unicode="&#xf1c3;" 
d="M192 448q28 0 46 -18t18 -46q0 -8 -3 -15.5t-8 -16.5t-7 -14q-2 -6 -2 -18h148v-148q14 0 18 2q5 2 14 7t16.5 8t15.5 3q28 0 46 -18t18 -46t-18 -46t-46 -18q-8 0 -15.5 3t-16.5 8t-14 7q-6 2 -18 2v-148h-148q0 14 2 18q2 5 7 14t8 16.5t3 15.5q0 28 -18 46t-46 18
t-46 -18t-18 -46q0 -6 2 -12.5t4.5 -11.5t6 -11.5t5.5 -10.5q2 -6 2 -18h-148v384h148q0 14 -2 18l-4.5 9l-4.5 9t-4.5 8.5t-3.5 9.5t-1 10q0 28 18 46t46 18z" />
    <glyph glyph-name="question-mark" unicode="&#xf1c4;" 
d="M286 448q81 0 122 -38q38 -35 38 -90q0 -35 -14 -65t-27 -45t-35 -34t-29.5 -27t-15 -26t-7.5 -43v-16h-64v16q0 35 13 65t26.5 45t34.5 34q2 1 9.5 8t9 8t7.5 7t7 8t6 7.5t6 9t3.5 9.5t3 11.5t1.5 12.5t1 15q0 26 -18 42q-24 22 -78 22q-50 0 -74 -24q-15 -16 -20 -44
l-64 8q7 51 38 82q42 42 120 42zM254 0h64v-64h-64v64z" />
    <glyph glyph-name="rain" unicode="&#xf1c5;" 
d="M288 448h1q66 0 113 -47t47 -113v-32q27 -10 45.5 -37.5t18.5 -58.5q0 -33 -20.5 -58.5t-52.5 -33.5q-11 27 -34.5 43.5t-53.5 16.5q-16 0 -36 -8q-8 31 -33.5 51.5t-58.5 20.5t-58.5 -20.5t-33.5 -51.5q-18 8 -36 8q-36 0 -62 -22q-34 36 -34 86q0 53 37.5 90.5
t90.5 37.5q11 55 56.5 91.5t103.5 36.5zM214 128h2h2q3 1 6 1q13 0 22.5 -9.5t9.5 -22.5v-1v-128q0 -13 -9.5 -22.5t-22.5 -9.5t-22.5 9.5t-9.5 22.5v128v2q0 9 6.5 18t15.5 12zM86 64h2h2q3 1 6 1q13 0 22.5 -9.5t9.5 -22.5v-1v-64q0 -13 -9.5 -22.5t-22.5 -9.5t-22.5 9.5
t-9.5 22.5v64v2q0 9 6.5 18t15.5 12zM342 64h2h2q3 1 6 1q13 0 22.5 -9.5t9.5 -22.5v-1v-64q0 -13 -9.5 -22.5t-22.5 -9.5t-22.5 9.5t-9.5 22.5v64v2q0 6 3 12t8 11t11 7z" />
    <glyph glyph-name="random" unicode="&#xf1c6;" 
d="M384 448l128 -96l-128 -96v64h-32l-98 -122l112 -132q1 1 4 -2h14v64l128 -96l-128 -96v64h-16q-29 0 -50 24l-106 123l-98 -123q-19 -24 -50 -24h-64v64h64l106 132l-104 122l-2 2h-64v64h64q29 0 50 -24l98 -114l90 114q19 24 50 24h32v64z" />
    <glyph glyph-name="reload" unicode="&#xf1c7;" 
d="M256 448h-1q104 0 180 -76l76 76v-192h-192l70 70q-57 58 -134 58q-79 0 -135.5 -56t-56.5 -136t56.5 -136t135.5 -56q80 0 137 56l46 -46q-73 -74 -182 -74q-106 0 -181 75t-75 181t75 181t181 75z" />
    <glyph glyph-name="resize-both" unicode="&#xf1c8;" 
d="M256 448h256v-256l-106 106l-256 -256l106 -106h-256v256l106 -106l256 256z" />
    <glyph glyph-name="resize-height" unicode="&#xf1c9;" 
d="M224 448l160 -192h-128v-128h128l-160 -192l-160 192h128v128h-128z" />
    <glyph glyph-name="resize-width" unicode="&#xf1ca;" 
d="M192 384v-128h128v128l192 -160l-192 -160v128h-128v-128l-192 160z" />
    <glyph glyph-name="rss-alt" unicode="&#xf1cb;" 
d="M0 448q104 0 199 -40.5t163.5 -109t109 -163.5t40.5 -199h-128q0 160 -112 272t-272 112v128zM0 256q132 0 226 -94t94 -226h-128q0 80 -56 136t-136 56v128zM0 64q53 0 90.5 -37.5t37.5 -90.5h-128v128z" />
    <glyph glyph-name="rss" unicode="&#xf1cc;" 
d="M64 448q185 0 316.5 -131.5t131.5 -316.5h-64q0 159 -112.5 271.5t-271.5 112.5v64zM64 320q132 0 226 -94t94 -226h-64q0 106 -75 181t-181 75v64zM64 192q79 0 135.5 -56.5t56.5 -135.5h-64q0 53 -37.5 90.5t-90.5 37.5v64zM64 64q26 0 45 -19t19 -45t-19 -45t-45 -19
t-45 19t-19 45t19 45t45 19z" />
    <glyph glyph-name="script" unicode="&#xf1cd;" 
d="M192 448h256q26 0 45 -19t19 -45v-128h-256v96q0 13 -9.5 22.5t-22.5 9.5t-22.5 -9.5t-9.5 -22.5v-160h256v-192q0 -26 -19 -45t-45 -19h-320q-26 0 -45 19t-19 45v128h64v-96q0 -13 9.5 -22.5t22.5 -9.5t22.5 9.5t9.5 22.5v352q0 26 19 45t45 19z" />
    <glyph glyph-name="share-boxed" unicode="&#xf1ce;" 
d="M48 448h144v-64h-128v-320h256v64h64v-80q0 -20 -14 -34t-34 -14h-288q-20 0 -34 14t-14 34v352q0 20 14 34t34 14zM384 448l128 -128l-128 -128v64h-128q-45 0 -79.5 -27.5t-44.5 -70.5q11 96 82.5 161t169.5 65v64z" />
    <glyph glyph-name="share" unicode="&#xf1cf;" 
d="M320 448l192 -182l-192 -202v128h-64q-97 0 -164 -49t-92 -143q0 60 8.5 106.5t30.5 87.5t57.5 68t92 42.5t131.5 15.5v128z" />
    <glyph glyph-name="shield" unicode="&#xf1d0;" 
d="M256 448l12 -6l224 -94l20 -8v-20q0 -142 -94 -268q-39 -52 -80 -82q-46 -34 -82 -34t-82 34q-41 30 -80 82q-94 126 -94 268v20l20 8l224 94zM256 378l-188 -78q7 -117 78 -210q35 -46 68 -70q27 -20 42 -20v378z" />
    <glyph glyph-name="signal" unicode="&#xf1d1;" 
d="M384 448h64v-512h-64v512zM256 384h64v-448h-64v448zM128 256h64v-320h-64v320zM0 128h64v-192h-64v192z" />
    <glyph glyph-name="signpost" unicode="&#xf1d2;" 
d="M192 448h64v-128h128l64 -64l-64 -64h-128v-256h-64v320h-128l-64 64l64 64h128v64z" />
    <glyph glyph-name="sort-ascending" unicode="&#xf1d3;" 
d="M128 448h64v-384h128l-160 -128l-160 128h128v384zM256 448h128v-64h-128v64zM256 320h192v-64h-192v64zM256 192h256v-64h-256v64z" />
    <glyph glyph-name="sort-descending" unicode="&#xf1d4;" 
d="M128 448h64v-384h128l-160 -128l-160 128h128v384zM256 448h256v-64h-256v64zM256 320h192v-64h-192v64zM256 192h128v-64h-128v64z" />
    <glyph glyph-name="spreadsheet" unicode="&#xf1d5;" 
d="M48 448h416q20 0 34 -14t14 -34v-352q0 -20 -14 -34t-34 -14h-416q-20 0 -34 14t-14 34v352q0 20 14 34t34 14zM64 384v-64h64v64h-64zM192 384v-64h256v64h-256zM64 256v-64h64v64h-64zM192 256v-64h256v64h-256zM64 128v-64h64v64h-64zM192 128v-64h256v64h-256z" />
    <glyph glyph-name="star" unicode="&#xf1d6;" 
d="M256 448l64 -192h192l-160 -128l64 -192l-160 128l-160 -128l64 192l-160 128h192z" />
    <glyph glyph-name="sun" unicode="&#xf1d7;" 
d="M256 448q13 0 22.5 -9.5t9.5 -22.5t-9.5 -22.5t-22.5 -9.5t-22.5 9.5t-9.5 22.5t9.5 22.5t22.5 9.5zM96 384q13 0 22.5 -9.5t9.5 -22.5t-9.5 -22.5t-22.5 -9.5t-22.5 9.5t-9.5 22.5t9.5 22.5t22.5 9.5zM416 384q13 0 22.5 -9.5t9.5 -22.5t-9.5 -22.5t-22.5 -9.5
t-22.5 9.5t-9.5 22.5t9.5 22.5t22.5 9.5zM256 320q53 0 90.5 -37.5t37.5 -90.5t-37.5 -90.5t-90.5 -37.5t-90.5 37.5t-37.5 90.5t37.5 90.5t90.5 37.5zM32 224q13 0 22.5 -9.5t9.5 -22.5t-9.5 -22.5t-22.5 -9.5t-22.5 9.5t-9.5 22.5t9.5 22.5t22.5 9.5zM480 224
q13 0 22.5 -9.5t9.5 -22.5t-9.5 -22.5t-22.5 -9.5t-22.5 9.5t-9.5 22.5t9.5 22.5t22.5 9.5zM96 64q13 0 22.5 -9.5t9.5 -22.5t-9.5 -22.5t-22.5 -9.5t-22.5 9.5t-9.5 22.5t9.5 22.5t22.5 9.5zM416 64q13 0 22.5 -9.5t9.5 -22.5t-9.5 -22.5t-22.5 -9.5t-22.5 9.5t-9.5 22.5
t9.5 22.5t22.5 9.5zM256 0q13 0 22.5 -9.5t9.5 -22.5t-9.5 -22.5t-22.5 -9.5t-22.5 9.5t-9.5 22.5t9.5 22.5t22.5 9.5z" />
    <glyph glyph-name="tablet" unicode="&#xf1d8;" 
d="M22 448h404q8 0 14.5 -6.5t6.5 -15.5v-468q0 -8 -6.5 -14.5t-14.5 -6.5h-404q-9 0 -15.5 6.5t-6.5 14.5v468q0 9 6.5 15.5t15.5 6.5zM64 384v-320h320v320h-320zM224 32q-19 0 -28 -16t0 -32t28 -16t28 16t-0.5 32t-27.5 16z" />
    <glyph glyph-name="tag" unicode="&#xf1d9;" 
d="M0 448h192l320 -320l-192 -192l-320 320v192zM128 384q-26 0 -45 -19t-19 -45t19 -45t45 -19t45 19t19 45t-19 45t-45 19z" />
    <glyph glyph-name="tags" unicode="&#xf1da;" 
d="M0 384h128l64 -64l128 -128l-32 -32l-96 -96l-192 192v128zM218 384h102l192 -192l-128 -128l-50 50l76 78zM96 320q-13 0 -22.5 -9.5t-9.5 -22.5t9.5 -22.5t22.5 -9.5t22.5 9.5t9.5 22.5t-9.5 22.5t-22.5 9.5z" />
    <glyph glyph-name="target" unicode="&#xf1db;" 
d="M256 448q106 0 181 -75t75 -181t-75 -181t-181 -75t-181 75t-75 181t75 181t181 75zM256 384q-80 0 -136 -56t-56 -136t56 -136t136 -56t136 56t56 136t-56 136t-136 56zM256 320q53 0 90.5 -37.5t37.5 -90.5t-37.5 -90.5t-90.5 -37.5t-90.5 37.5t-37.5 90.5t37.5 90.5
t90.5 37.5zM256 256q-27 0 -45.5 -18.5t-18.5 -45.5t18.5 -45.5t45.5 -18.5t45.5 18.5t18.5 45.5t-18.5 45.5t-45.5 18.5z" />
    <glyph glyph-name="task" unicode="&#xf1dc;" 
d="M0 448h358l-64 -64h-230v-320h320v102l64 64v-230h-448v448zM448 448l64 -64l-256 -256l-128 128l64 64l64 -64z" />
    <glyph glyph-name="terminal" unicode="&#xf1dd;" 
d="M6 448h500q5 0 5 -6v-500q0 -5 -5 -5h-500q-6 0 -6 5v500q0 6 6 6zM96 398l-46 -46l64 -64l-64 -64l46 -46l110 110zM256 256v-64h192v64h-192z" />
    <glyph glyph-name="text" unicode="&#xf1de;" 
d="M0 448h512v-128h-32q0 26 -19 45t-45 19h-96v-352q0 -13 9.5 -22.5t22.5 -9.5h32v-64h-256v64h32q13 0 22.5 9.5t9.5 22.5v352h-96q-26 0 -45 -19t-19 -45h-32v128z" />
    <glyph glyph-name="thumb-down" unicode="&#xf1df;" 
d="M0 448h64v-256h-64v256zM128 448h224q21 0 30 -20q66 -186 66 -204q0 -13 -9.5 -22.5t-22.5 -9.5h-96q-13 0 -22.5 -10t-9.5 -22q0 -20 30 -118q4 -13 -1.5 -24.5t-18.5 -15.5t-24.5 1.5t-17.5 18.5q-70 141 -82 152q-18 18 -46 18v256z" />
    <glyph glyph-name="thumb-up" unicode="&#xf1e0;" 
d="M286 448q4 1 12 -2q13 -4 18.5 -16t1.5 -24q-30 -98 -30 -118q0 -12 9.5 -22t22.5 -10h96q13 0 22.5 -9.5t9.5 -22.5q0 -8 -16.5 -59t-32.5 -98l-17 -47q-9 -20 -30 -20h-224v256q28 0 46 18q12 11 82 152q10 20 30 22zM0 256h64v-256h-64v256z" />
    <glyph glyph-name="timer" unicode="&#xf1e1;" 
d="M128 448v-1h192v-64h-64v-3q31 -5 46 -11l-22 -60q-27 10 -56 10q-67 0 -113.5 -46.5t-46.5 -113t46.5 -113.5t113.5 -47t113.5 47t46.5 113q0 30 -10 57l58 24q16 -41 16 -80q0 -93 -65.5 -158.5t-158.5 -65.5t-158.5 65.5t-65.5 158.5q0 84 55 147.5t137 74.5v2h-64v64
zM448 374h1q-190 -224 -203 -236q-9 -10 -22 -10t-22 9.5t-9 22t9 22.5q6 5 67.5 53t119.5 93z" />
    <glyph glyph-name="transfer" unicode="&#xf1e2;" 
d="M384 448l128 -96l-128 -96v64h-384v64h384v64zM128 192v-64h384v-64h-384v-64l-128 96z" />
    <glyph glyph-name="trash" unicode="&#xf1e3;" 
d="M192 448h64q26 0 45 -19t19 -45h64q26 0 45 -19t19 -45h-448q0 26 19 45t45 19h64q0 26 19 45t45 19zM64 256h1h64v-224q0 -13 9 -22.5t22.5 -9.5t23 9.5t9.5 22.5v224h64v-224q0 -13 9 -22.5t22.5 -9.5t23 9.5t9.5 22.5v224h64v-308q0 -12 -13 -12h-296q-12 0 -12 12
v308z" />
    <glyph glyph-name="underline" unicode="&#xf1e4;" 
d="M64 448h128v-256q0 -26 19 -45t45 -19t45 19t19 45v256h64v-256q0 -53 -37.5 -90.5t-90.5 -37.5h-32q-66 0 -113 37.5t-47 90.5v256zM0 0h448v-64h-448v64z" />
    <glyph glyph-name="vertical-align-bottom" unicode="&#xf1e5;" 
d="M6 448h116q5 0 5 -6v-308q0 -5 -5 -5h-116q-6 0 -6 5v308q0 6 6 6zM390 448h116q5 0 5 -6v-308q0 -5 -5 -5h-116q-6 0 -6 5v308q0 6 6 6zM198 320h116q5 0 5 -6v-180q0 -5 -5 -5h-116q-6 0 -6 5v180q0 6 6 6zM0 64h512v-64h-512v64z" />
    <glyph glyph-name="vertical-align-center" unicode="&#xf1e6;" 
d="M6 448h116q6 0 6 -6v-122h-128v122q0 6 6 6zM390 448h116q6 0 6 -6v-122h-128v122q0 6 6 6zM198 384h116q6 0 6 -6v-58h-128v58q0 6 6 6zM0 256h512v-64h-512v64zM0 128h-1h128v-122q0 -6 -5 -6h-116q-6 0 -6 6v122zM192 128h-1h128v-58q0 -6 -5 -6h-116q-6 0 -6 6v58z
M384 128h-1h128v-122q0 -6 -5 -6h-116q-6 0 -6 6v122z" />
    <glyph glyph-name="vertical-align-top" unicode="&#xf1e7;" 
d="M0 448h512v-64h-512v64zM6 320h116q5 0 5 -6v-308q0 -5 -5 -5h-116q-6 0 -6 5v308q0 6 6 6zM198 320h116q5 0 5 -6v-180q0 -5 -5 -5h-116q-6 0 -6 5v180q0 6 6 6zM390 320h116q5 0 5 -6v-308q0 -5 -5 -5h-116q-6 0 -6 5v308q0 6 6 6z" />
    <glyph glyph-name="video" unicode="&#xf1e8;" 
d="M32 384h320q13 0 22.5 -9.5t9.5 -22.5v-96l64 64h64v-192h-64l-64 64v-96q0 -13 -9.5 -22.5t-22.5 -9.5h-320q-13 0 -22.5 9.5t-9.5 22.5v256q0 13 9.5 22.5t22.5 9.5z" />
    <glyph glyph-name="volume-high" unicode="&#xf1e9;" 
d="M214 448h42v-512h-42l-86 128h-128v256h128zM320 384q26 0 48 -6q63 -16 103.5 -67.5t40.5 -118.5t-40.5 -118.5t-103.5 -67.5h-2q-28 -6 -46 -6v64q17 0 32 4q42 10 69 44.5t27 79.5t-27 79t-69 45q-15 4 -32 4v64zM320 256q8 0 16 -2q21 -5 34.5 -22.5t13.5 -39.5
t-13.5 -39.5t-34.5 -22.5q-7 -2 -16 -2v128z" />
    <glyph glyph-name="volume-low" unicode="&#xf1ea;" 
d="M278 448h42v-512h-42l-86 128h-128v256h128zM384 256q8 0 16 -2q21 -5 34.5 -22.5t13.5 -39.5t-13.5 -39.5t-34.5 -22.5q-7 -2 -16 -2v128z" />
    <glyph glyph-name="volume-off" unicode="&#xf1eb;" 
d="M342 448h42v-512h-42l-86 128h-128v256h128z" />
    <glyph glyph-name="warning" unicode="&#xf1ec;" 
d="M198 448h-2h52q6 0 9 -6l188 -436q2 -4 2 -12v-52q0 -5 -6 -5h-436q-6 0 -6 5v52q0 8 2 12l188 436q4 6 9 6zM192 256v-128h64v128h-64zM192 64v-64h64v64h-64z" />
    <glyph glyph-name="wifi" unicode="&#xf1ed;" 
d="M240 448q133 0 242 -70l-34 -52q-90 59 -208 59q-114 0 -206 -59l-34 52q110 70 240 70zM240 256h-1q75 0 139 -40l-34 -54q-47 30 -105 30q-54 0 -101 -30l-34 54q63 40 136 40zM240 64q26 0 45 -19t19 -45t-19 -45t-45 -19t-45 19t-19 45t19 45t45 19z" />
    <glyph glyph-name="wrench" unicode="&#xf1ee;" 
d="M352 448l1 -1q20 0 30 -2l-62 -62v-128h128l62 62q2 -9 2 -30q0 -66 -47 -113t-113 -47q-28 0 -59 13l-184 -187q-19 -18 -46 -18q-28 0 -46 18q-19 19 -19 46.5t19 45.5l186 185q-12 32 -12 58q0 66 47 113t113 47zM64 32q-13 0 -22.5 -9.5t-9.5 -22.5t9.5 -22.5
t22.5 -9.5t22.5 9.5t9.5 22.5t-9.5 22.5t-22.5 9.5z" />
    <glyph glyph-name="x" unicode="&#xf1ef;" 
d="M90 448l46 -46l116 -114l114 114l44 46l92 -90l-46 -46l-116 -116l116 -114l46 -44l-92 -92l-44 46l-114 116l-116 -116l-46 -46l-90 92l46 44l114 114l-114 116l-46 46z" />
    <glyph glyph-name="yen" unicode="&#xf1f0;" 
d="M0 448h64l148 -192h24l148 192h64l-144 -192h144v-64h-192v-64h192v-64h-192v-128h-64v128h-192v64h192v64h-192v64h144z" />
    <glyph glyph-name="zoom-in" unicode="&#xf1f1;" 
d="M224 448q93 0 158.5 -65.5t65.5 -158.5q0 -56 -28 -108l8 -6l66 -64q9 -8 15.5 -22.5t6.5 -26.5q0 -27 -19 -46t-46 -19q-12 0 -26.5 6.5t-22.5 15.5l-64 66l-6 8q-50 -28 -108 -28q-93 0 -158.5 65.5t-65.5 158.5t65.5 158.5t158.5 65.5zM224 384v1q-67 0 -113.5 -47
t-46.5 -113.5t46.5 -113t113.5 -46.5q59 0 104 37q7 11 16 18l4 2l1 1l1 1q34 43 34 100q0 67 -46.5 113.5t-113.5 46.5zM192 320h64v-64h64v-64h-64v-64h-64v64h-64v64h64v64z" />
    <glyph glyph-name="zoom-out" unicode="&#xf1f2;" 
d="M224 448q93 0 158.5 -65.5t65.5 -158.5q0 -56 -28 -108l8 -6l66 -64q9 -8 15.5 -22.5t6.5 -26.5q0 -27 -19 -46t-46 -19q-12 0 -26.5 6.5t-22.5 15.5l-64 66l-6 8q-50 -28 -108 -28q-93 0 -158.5 65.5t-65.5 158.5t65.5 158.5t158.5 65.5zM224 384v1q-67 0 -113.5 -47
t-46.5 -113.5t46.5 -113t113.5 -46.5q59 0 104 37q7 11 16 18l4 2l1 1l1 1q34 43 34 100q0 67 -46.5 113.5t-113.5 46.5zM128 256h192v-64h-192v64z" />
  </font>
</defs>
</svg>
