<?xml version="1.0" encoding="utf-8"?>
<!-- Generated by IcoMoon.io -->
<!DOCTYPE svg PUBLIC "-//W3C//DTD SVG 1.1//EN" "http://www.w3.org/Graphics/SVG/1.1/DTD/svg11.dtd">
<svg version="1.1" xmlns="http://www.w3.org/2000/svg" xmlns:xlink="http://www.w3.org/1999/xlink" width="16" height="16" viewBox="0 0 16 16">
<path fill="#000000" d="M11 0h-6l-3 2v4h12v-4l-3-2zM10 5h-1v-0.667c0-0.183-0.15-0.333-0.333-0.333h-1.333c-0.183 0-0.333 0.15-0.333 0.333v0.667h-1v-1.667c0-0.183 0.15-0.333 0.333-0.333h3.333c0.183 0 0.333 0.15 0.333 0.333v1.667zM2 11h12v-4h-12v4zM6 8.333c0-0.183 0.15-0.333 0.333-0.333h3.333c0.183 0 0.333 0.15 0.333 0.333v1.667h-1v-0.667c0-0.183-0.15-0.333-0.333-0.333h-1.333c-0.183 0-0.333 0.15-0.333 0.333v0.667h-1v-1.667zM2 16h12v-4h-12v4zM6 13.333c0-0.183 0.15-0.333 0.333-0.333h3.333c0.183 0 0.333 0.15 0.333 0.333v1.667h-1v-0.667c0-0.183-0.15-0.333-0.333-0.333h-1.333c-0.183 0-0.333 0.15-0.333 0.333v0.667h-1v-1.667z"></path>
</svg>
