<?xml version="1.0" encoding="utf-8"?>
<!-- Generated by IcoMoon.io -->
<!DOCTYPE svg PUBLIC "-//W3C//DTD SVG 1.1//EN" "http://www.w3.org/Graphics/SVG/1.1/DTD/svg11.dtd">
<svg version="1.1" xmlns="http://www.w3.org/2000/svg" xmlns:xlink="http://www.w3.org/1999/xlink" width="16" height="16" viewBox="0 0 16 16">
<path fill="#000000" d="M14.116 3.116l-2.232-2.232c-0.486-0.486-1.446-0.884-2.134-0.884h-7.5c-0.688 0-1.25 0.563-1.25 1.25v13.5c0 0.688 0.563 1.25 1.25 1.25h11.5c0.688 0 1.25-0.563 1.25-1.25v-9.5c0-0.688-0.398-1.648-0.884-2.134zM11 1.446c0.068 0.047 0.128 0.096 0.177 0.145l2.232 2.232c0.049 0.049 0.098 0.109 0.145 0.177h-2.554v-2.554zM14 14.75c0 0.136-0.114 0.25-0.25 0.25h-11.5c-0.135 0-0.25-0.114-0.25-0.25v-13.5c0-0.135 0.115-0.25 0.25-0.25h7.5c0.075 0 0.16 0.010 0.25 0.027v3.973h3.973c0.017 0.090 0.027 0.174 0.027 0.25v9.5z"></path>
<path fill="#000000" d="M4 8v5h8v-5h-8zM5 10v-1h2.5v1h-2.5zM7.5 11v1h-2.5v-1h2.5zM11 12h-2.5v-1h2.5v1zM11 10h-2.5v-1h2.5v1z"></path>
</svg>
