<?xml version="1.0" encoding="utf-8"?>
<!-- Generated by IcoMoon.io -->
<!DOCTYPE svg PUBLIC "-//W3C//DTD SVG 1.1//EN" "http://www.w3.org/Graphics/SVG/1.1/DTD/svg11.dtd">
<svg version="1.1" xmlns="http://www.w3.org/2000/svg" xmlns:xlink="http://www.w3.org/1999/xlink" width="16" height="16" viewBox="0 0 16 16">
<path fill="#000000" d="M12 1h-2c-1.654 0-3 1.346-3 3v3h-6.25c-0.412 0-0.75 0.338-0.75 0.75v7.5c0 0.412 0.338 0.75 0.75 0.75h8.5c0.412 0 0.75-0.338 0.75-0.75v-7.5c0-0.412-0.338-0.75-0.75-0.75h-0.25v-3c0-0.551 0.449-1 1-1h2c0.551 0 1 0.449 1 1v3h2v-3c0-1.654-1.346-3-3-3zM6 14h-2l0.435-2.175c-0.263-0.18-0.435-0.482-0.435-0.825 0-0.552 0.448-1 1-1s1 0.448 1 1c0 0.343-0.172 0.645-0.435 0.825l0.435 2.175z"></path>
</svg>
